solid Created by Gmsh
facet normal -0.831452 -0.555558 0.00655436
  outer loop
    vertex 9.2135 3.88734 1.91974
    vertex 7.07107 7.07107 0
    vertex 9.2388 3.82683 0
  endloop
endfacet
facet normal -0.977137 -0.211123 -0.0250878
  outer loop
    vertex 9.2135 3.88734 1.91974
    vertex 10 0 4
    vertex 9.08111 4.1873 4.55204
  endloop
endfacet
facet normal -0.189153 -0.978956 -0.0765881
  outer loop
    vertex 0 10 4
    vertex 2.73524 9.61865 2.11907
    vertex 3.86637 9.22232 4.39141
  endloop
endfacet
facet normal -0.831456 -0.555561 -0.0057674
  outer loop
    vertex 7.07107 7.07107 60
    vertex 9.21488 3.88406 57.9348
    vertex 9.2388 3.82683 60
  endloop
endfacet
facet normal -0.977955 -0.207822 0.020356
  outer loop
    vertex 10 0 56
    vertex 9.21488 3.88406 57.9348
    vertex 9.09003 4.16791 54.8342
  endloop
endfacet
facet normal -0.814802 -0.579738 0.00122039
  outer loop
    vertex 9.07359 4.20357 7.25991
    vertex 6.93671 7.20292 5.37905
    vertex 9.08111 4.1873 4.55204
  endloop
endfacet
facet normal -0.81725 -0.576203 0.00963875
  outer loop
    vertex 6.93671 7.20292 5.37905
    vertex 9.07359 4.20357 7.25991
    vertex 7.07107 7.07107 8.88889
  endloop
endfacet
facet normal -0.554312 -0.832018 0.0220208
  outer loop
    vertex 6.93671 7.20292 5.37905
    vertex 4.20357 9.07359 7.25991
    vertex 3.86637 9.22232 4.39141
  endloop
endfacet
facet normal -0.569049 -0.822253 -0.00910576
  outer loop
    vertex 4.20357 9.07359 7.25991
    vertex 6.93671 7.20292 5.37905
    vertex 7.07107 7.07107 8.88889
  endloop
endfacet
facet normal -0.82956 -0.558418 -8.44025e-14
  outer loop
    vertex 7.07107 7.07107 8.88889
    vertex 9.21234 3.89009 10.6606
    vertex 7.07107 7.07107 12.8148
  endloop
endfacet
facet normal -0.980785 -0.195093 0
  outer loop
    vertex 9.23878 3.82688 25.7609
    vertex 10 0 24
    vertex 10 0 28
  endloop
endfacet
facet normal -0.980785 -0.195091 0
  outer loop
    vertex 9.23879 3.82684 29.7143
    vertex 10 0 28
    vertex 10 0 32
  endloop
endfacet
facet normal -0.987688 -0.156435 0
  outer loop
    vertex 9.51056 3.09017 32.9768
    vertex 10 0 32
    vertex 10 0 36
  endloop
endfacet
facet normal -0.967881 -0.236565 -0.0851111
  outer loop
    vertex 10 0 36
    vertex 8.98028 4.39939 35.3682
    vertex 9.51056 3.09017 32.9768
  endloop
endfacet
facet normal -0.558418 -0.82956 8.47227e-14
  outer loop
    vertex 3.89009 9.21234 10.6606
    vertex 7.07107 7.07107 8.88889
    vertex 7.07107 7.07107 12.8148
  endloop
endfacet
facet normal -0.195093 -0.980785 0
  outer loop
    vertex 0 10 24
    vertex 3.82688 9.23878 25.7609
    vertex 0 10 28
  endloop
endfacet
facet normal -0.195091 -0.980785 0
  outer loop
    vertex 0 10 28
    vertex 3.82684 9.23879 29.7143
    vertex 0 10 32
  endloop
endfacet
facet normal -0.156435 -0.987688 0
  outer loop
    vertex 0 10 32
    vertex 3.09017 9.51056 32.9768
    vertex 0 10 36
  endloop
endfacet
facet normal -0.236565 -0.967881 -0.0851111
  outer loop
    vertex 4.39939 8.98028 35.3682
    vertex 0 10 36
    vertex 3.09017 9.51056 32.9768
  endloop
endfacet
facet normal -0.821768 -0.565783 -0.0677292
  outer loop
    vertex 6.93671 7.20292 5.37905
    vertex 7.76688 6.29885 2.85868
    vertex 9.08111 4.1873 4.55204
  endloop
endfacet
facet normal -0.610651 -0.791753 -0.015258
  outer loop
    vertex 7.07107 7.07107 53.1597
    vertex 7.31414 6.81934 56.4941
    vertex 4.86789 8.73519 54.9815
  endloop
endfacet
facet normal -0.825593 -0.563991 0.0176058
  outer loop
    vertex 7.31414 6.81934 56.4941
    vertex 7.07107 7.07107 53.1597
    vertex 9.09003 4.16791 54.8342
  endloop
endfacet
facet normal -0.993997 -0.109409 -0
  outer loop
    vertex 10 0 8
    vertex 9.76059 2.17504 5.85531
    vertex 10 0 4
  endloop
endfacet
facet normal -0.947303 -0.320337 -0.000705844
  outer loop
    vertex 9.08111 4.1873 4.55204
    vertex 9.76059 2.17504 5.85531
    vertex 9.07359 4.20357 7.25991
  endloop
endfacet
facet normal -0.962101 -0.230368 0.145921
  outer loop
    vertex 9.76059 2.17504 5.85531
    vertex 9.08111 4.1873 4.55204
    vertex 10 0 4
  endloop
endfacet
facet normal -0.963025 -0.235331 -0.131161
  outer loop
    vertex 9.76059 2.17504 5.85531
    vertex 10 0 8
    vertex 9.07359 4.20357 7.25991
  endloop
endfacet
facet normal -0.994136 -0.108136 0
  outer loop
    vertex 9.76613 2.15003 53.6506
    vertex 10 0 52
    vertex 10 0 56
  endloop
endfacet
facet normal -0.960604 -0.245935 -0.129442
  outer loop
    vertex 9.09003 4.16791 54.8342
    vertex 9.76613 2.15003 53.6506
    vertex 10 0 56
  endloop
endfacet
facet normal -0.109409 -0.993997 0
  outer loop
    vertex 2.17504 9.76059 5.85531
    vertex 0 10 8
    vertex 0 10 4
  endloop
endfacet
facet normal -0.313009 -0.949669 -0.0124454
  outer loop
    vertex 2.17504 9.76059 5.85531
    vertex 3.86637 9.22232 4.39141
    vertex 4.20357 9.07359 7.25991
  endloop
endfacet
facet normal -0.207255 -0.971187 0.117651
  outer loop
    vertex 3.86637 9.22232 4.39141
    vertex 2.17504 9.76059 5.85531
    vertex 0 10 4
  endloop
endfacet
facet normal -0.235331 -0.963025 -0.131161
  outer loop
    vertex 0 10 8
    vertex 2.17504 9.76059 5.85531
    vertex 4.20357 9.07359 7.25991
  endloop
endfacet
facet normal -0.115181 -0.993345 0
  outer loop
    vertex 0 10 52
    vertex 2.28829 9.73467 54.249
    vertex 0 10 56
  endloop
endfacet
facet normal -0.422101 -0.905041 0.0522608
  outer loop
    vertex 5.51945 8.33881 2.44254
    vertex 3.86637 9.22232 4.39141
    vertex 2.73524 9.61865 2.11907
  endloop
endfacet
facet normal -0.66771 -0.743435 -0.0383008
  outer loop
    vertex 5.51945 8.33881 2.44254
    vertex 7.07107 7.07107 0
    vertex 7.76688 6.29885 2.85868
  endloop
endfacet
facet normal -0.626156 -0.779277 0.0256169
  outer loop
    vertex 5.28998 8.48623 57.725
    vertex 4.86789 8.73519 54.9815
    vertex 7.31414 6.81934 56.4941
  endloop
endfacet
facet normal -0.403262 -0.914844 -0.0209768
  outer loop
    vertex 4.86789 8.73519 54.9815
    vertex 5.28998 8.48623 57.725
    vertex 2.77861 9.60621 57.1592
  endloop
endfacet
facet normal -0.631324 -0.775428 0.0119063
  outer loop
    vertex 7.07107 7.07107 60
    vertex 5.28998 8.48623 57.725
    vertex 7.31414 6.81934 56.4941
  endloop
endfacet
facet normal -0.980784 -0.195099 1.40075e-05
  outer loop
    vertex 9.23867 3.82713 22.0764
    vertex 10 0 24
    vertex 9.23878 3.82688 25.7609
  endloop
endfacet
facet normal -0.831465 -0.555577 -1.40061e-05
  outer loop
    vertex 7.07107 7.07107 24.1334
    vertex 9.23867 3.82713 22.0764
    vertex 9.23878 3.82688 25.7609
  endloop
endfacet
facet normal -0.195099 -0.980784 1.40075e-05
  outer loop
    vertex 0 10 24
    vertex 3.82713 9.23867 22.0764
    vertex 3.82688 9.23878 25.7609
  endloop
endfacet
facet normal -0.555577 -0.831465 -1.40061e-05
  outer loop
    vertex 3.82713 9.23867 22.0764
    vertex 7.07107 7.07107 24.1334
    vertex 3.82688 9.23878 25.7609
  endloop
endfacet
facet normal -0.980763 -0.195086 -0.00677407
  outer loop
    vertex 9.2135 3.88734 1.91974
    vertex 9.2388 3.82683 0
    vertex 10 0 0
  endloop
endfacet
facet normal -0.98014 -0.198305 -0
  outer loop
    vertex 10 0 4
    vertex 9.2135 3.88734 1.91974
    vertex 10 0 0
  endloop
endfacet
facet normal -0.194539 -0.978015 0.0751024
  outer loop
    vertex 3.82683 9.2388 0
    vertex 2.73524 9.61865 2.11907
    vertex 0 10 0
  endloop
endfacet
facet normal -0.138085 -0.99042 0
  outer loop
    vertex 2.73524 9.61865 2.11907
    vertex 0 10 4
    vertex 0 10 0
  endloop
endfacet
facet normal -0.980768 -0.195087 0.00595007
  outer loop
    vertex 9.2388 3.82683 60
    vertex 9.21488 3.88406 57.9348
    vertex 10 0 60
  endloop
endfacet
facet normal -0.980176 -0.198131 0
  outer loop
    vertex 9.21488 3.88406 57.9348
    vertex 10 0 56
    vertex 10 0 60
  endloop
endfacet
facet normal -0.194797 -0.979312 -0.0547827
  outer loop
    vertex 2.77861 9.60621 57.1592
    vertex 3.82683 9.2388 60
    vertex 0 10 60
  endloop
endfacet
facet normal -0.140319 -0.990106 0
  outer loop
    vertex 0 10 56
    vertex 2.77861 9.60621 57.1592
    vertex 0 10 60
  endloop
endfacet
facet normal -0.831152 -0.556045 -1.42784e-14
  outer loop
    vertex 7.07107 7.07107 12.8148
    vertex 9.23442 3.83739 14.5463
    vertex 7.07107 7.07107 16.8025
  endloop
endfacet
facet normal -0.556045 -0.831152 1.39687e-14
  outer loop
    vertex 3.83739 9.23442 14.5463
    vertex 7.07107 7.07107 12.8148
    vertex 7.07107 7.07107 16.8025
  endloop
endfacet
facet normal -0.831417 -0.555649 -2.26677e-15
  outer loop
    vertex 7.07107 7.07107 16.8025
    vertex 9.23807 3.82859 18.5249
    vertex 7.07107 7.07107 20.8004
  endloop
endfacet
facet normal -0.555649 -0.831417 2.27859e-15
  outer loop
    vertex 3.82859 9.23807 18.5249
    vertex 7.07107 7.07107 16.8025
    vertex 7.07107 7.07107 20.8004
  endloop
endfacet
facet normal -0.831461 -0.555583 -8.84233e-16
  outer loop
    vertex 7.07107 7.07107 20.8004
    vertex 9.23867 3.82713 22.0764
    vertex 7.07107 7.07107 24.1334
  endloop
endfacet
facet normal -0.555583 -0.831461 1.36605e-16
  outer loop
    vertex 3.82713 9.23867 22.0764
    vertex 7.07107 7.07107 20.8004
    vertex 7.07107 7.07107 24.1334
  endloop
endfacet
facet normal -0.813608 -0.581413 0
  outer loop
    vertex 7.07107 7.07107 32.1694
    vertex 8.98028 4.39939 35.3682
    vertex 7.07107 7.07107 36.6949
  endloop
endfacet
facet normal -0.581413 -0.813608 0
  outer loop
    vertex 4.39939 8.98028 35.3682
    vertex 7.07107 7.07107 32.1694
    vertex 7.07107 7.07107 36.6949
  endloop
endfacet
facet normal -0.85718 -0.507485 0.0877522
  outer loop
    vertex 8.98028 4.39939 35.3682
    vertex 7.07107 7.07107 32.1694
    vertex 9.51056 3.09017 32.9768
  endloop
endfacet
facet normal -0.507485 -0.85718 0.0877522
  outer loop
    vertex 7.07107 7.07107 32.1694
    vertex 4.39939 8.98028 35.3682
    vertex 3.09017 9.51056 32.9768
  endloop
endfacet
facet normal -0.828549 -0.559916 -2.43325e-16
  outer loop
    vertex 7.07107 7.07107 36.6949
    vertex 9.19821 3.92337 38.6409
    vertex 7.07107 7.07107 40.7825
  endloop
endfacet
facet normal -0.559916 -0.828549 -3.43171e-16
  outer loop
    vertex 3.92337 9.19821 38.6409
    vertex 7.07107 7.07107 36.6949
    vertex 7.07107 7.07107 40.7825
  endloop
endfacet
facet normal -0.830984 -0.556296 2.46147e-16
  outer loop
    vertex 7.07107 7.07107 40.7825
    vertex 9.2321 3.84295 42.5368
    vertex 7.07107 7.07107 44.7971
  endloop
endfacet
facet normal -0.556296 -0.830984 3.41707e-16
  outer loop
    vertex 3.84295 9.2321 42.5368
    vertex 7.07107 7.07107 40.7825
    vertex 7.07107 7.07107 44.7971
  endloop
endfacet
facet normal -0.831389 -0.555691 6.6981e-14
  outer loop
    vertex 7.07107 7.07107 44.7971
    vertex 9.23768 3.82952 46.4968
    vertex 7.07107 7.07107 48.9792
  endloop
endfacet
facet normal -0.555691 -0.831389 -6.75426e-14
  outer loop
    vertex 3.82952 9.23768 46.4968
    vertex 7.07107 7.07107 44.7971
    vertex 7.07107 7.07107 48.9792
  endloop
endfacet
facet normal -0.980111 -0.198452 0
  outer loop
    vertex 9.21234 3.89009 10.6606
    vertex 10 0 8
    vertex 10 0 12
  endloop
endfacet
facet normal -0.97711 -0.21176 0.0203468
  outer loop
    vertex 10 0 8
    vertex 9.21234 3.89009 10.6606
    vertex 9.07359 4.20357 7.25991
  endloop
endfacet
facet normal -0.824622 -0.565382 -0.0184723
  outer loop
    vertex 9.21234 3.89009 10.6606
    vertex 7.07107 7.07107 8.88889
    vertex 9.07359 4.20357 7.25991
  endloop
endfacet
facet normal -0.980674 -0.195651 0
  outer loop
    vertex 9.23442 3.83739 14.5463
    vertex 10 0 12
    vertex 10 0 16
  endloop
endfacet
facet normal -0.9803 -0.197494 0.00289106
  outer loop
    vertex 9.21234 3.89009 10.6606
    vertex 10 0 12
    vertex 9.23442 3.83739 14.5463
  endloop
endfacet
facet normal -0.830446 -0.557092 -0.00283752
  outer loop
    vertex 7.07107 7.07107 12.8148
    vertex 9.21234 3.89009 10.6606
    vertex 9.23442 3.83739 14.5463
  endloop
endfacet
facet normal -0.980767 -0.195184 0
  outer loop
    vertex 9.23807 3.82859 18.5249
    vertex 10 0 16
    vertex 10 0 20
  endloop
endfacet
facet normal -0.980708 -0.19548 0.000467603
  outer loop
    vertex 9.23442 3.83739 14.5463
    vertex 10 0 16
    vertex 9.23807 3.82859 18.5249
  endloop
endfacet
facet normal -0.831302 -0.55582 -0.000466113
  outer loop
    vertex 7.07107 7.07107 16.8025
    vertex 9.23442 3.83739 14.5463
    vertex 9.23807 3.82859 18.5249
  endloop
endfacet
facet normal -0.980782 -0.195106 0
  outer loop
    vertex 9.23867 3.82713 22.0764
    vertex 10 0 20
    vertex 10 0 24
  endloop
endfacet
facet normal -0.980773 -0.195151 8.72065e-05
  outer loop
    vertex 9.23807 3.82859 18.5249
    vertex 10 0 20
    vertex 9.23867 3.82713 22.0764
  endloop
endfacet
facet normal -0.831445 -0.555607 -8.71559e-05
  outer loop
    vertex 7.07107 7.07107 20.8004
    vertex 9.23807 3.82859 18.5249
    vertex 9.23867 3.82713 22.0764
  endloop
endfacet
facet normal -0.980785 -0.195092 2.17567e-06
  outer loop
    vertex 9.23878 3.82688 25.7609
    vertex 10 0 28
    vertex 9.23879 3.82684 29.7143
  endloop
endfacet
facet normal -0.831469 -0.555572 -2.17563e-06
  outer loop
    vertex 7.07107 7.07107 27.3556
    vertex 9.23878 3.82688 25.7609
    vertex 9.23879 3.82684 29.7143
  endloop
endfacet
facet normal -0.831468 -0.555572 4.59425e-16
  outer loop
    vertex 7.07107 7.07107 24.1334
    vertex 9.23878 3.82688 25.7609
    vertex 7.07107 7.07107 27.3556
  endloop
endfacet
facet normal -0.98452 -0.169741 0.0436859
  outer loop
    vertex 9.23879 3.82684 29.7143
    vertex 10 0 32
    vertex 9.51056 3.09017 32.9768
  endloop
endfacet
facet normal -0.847173 -0.529063 -0.0488921
  outer loop
    vertex 7.07107 7.07107 32.1694
    vertex 9.23879 3.82684 29.7143
    vertex 9.51056 3.09017 32.9768
  endloop
endfacet
facet normal -0.831469 -0.555571 0
  outer loop
    vertex 7.07107 7.07107 27.3556
    vertex 9.23879 3.82684 29.7143
    vertex 7.07107 7.07107 32.1694
  endloop
endfacet
facet normal -0.97975 -0.200223 0
  outer loop
    vertex 9.19821 3.92337 38.6409
    vertex 10 0 36
    vertex 10 0 40
  endloop
endfacet
facet normal -0.974675 -0.221217 0.03273
  outer loop
    vertex 8.98028 4.39939 35.3682
    vertex 10 0 36
    vertex 9.19821 3.92337 38.6409
  endloop
endfacet
facet normal -0.819931 -0.571749 -0.0285602
  outer loop
    vertex 7.07107 7.07107 36.6949
    vertex 8.98028 4.39939 35.3682
    vertex 9.19821 3.92337 38.6409
  endloop
endfacet
facet normal -0.980615 -0.195946 0
  outer loop
    vertex 9.2321 3.84295 42.5368
    vertex 10 0 40
    vertex 10 0 44
  endloop
endfacet
facet normal -0.98004 -0.19875 0.00442211
  outer loop
    vertex 9.19821 3.92337 38.6409
    vertex 10 0 40
    vertex 9.2321 3.84295 42.5368
  endloop
endfacet
facet normal -0.829896 -0.557902 -0.00429756
  outer loop
    vertex 7.07107 7.07107 40.7825
    vertex 9.19821 3.92337 38.6409
    vertex 9.2321 3.84295 42.5368
  endloop
endfacet
facet normal -0.980757 -0.195233 0
  outer loop
    vertex 9.23768 3.82952 46.4968
    vertex 10 0 44
    vertex 10 0 48
  endloop
endfacet
facet normal -0.980667 -0.195683 0.000718022
  outer loop
    vertex 9.2321 3.84295 42.5368
    vertex 10 0 44
    vertex 9.23768 3.82952 46.4968
  endloop
endfacet
facet normal -0.831215 -0.55595 -0.00071451
  outer loop
    vertex 7.07107 7.07107 44.7971
    vertex 9.2321 3.84295 42.5368
    vertex 9.23768 3.82952 46.4968
  endloop
endfacet
facet normal -0.982667 -0.185378 0
  outer loop
    vertex 9.3127 3.6433 51.0172
    vertex 10 0 48
    vertex 10 0 52
  endloop
endfacet
facet normal -0.981347 -0.192063 0.00837343
  outer loop
    vertex 9.23768 3.82952 46.4968
    vertex 10 0 48
    vertex 9.3127 3.6433 51.0172
  endloop
endfacet
facet normal -0.834474 -0.550976 -0.00884947
  outer loop
    vertex 7.07107 7.07107 48.9792
    vertex 9.23768 3.82952 46.4968
    vertex 9.3127 3.6433 51.0172
  endloop
endfacet
facet normal -0.198452 -0.980111 0
  outer loop
    vertex 0 10 8
    vertex 3.89009 9.21234 10.6606
    vertex 0 10 12
  endloop
endfacet
facet normal -0.21176 -0.97711 0.0203468
  outer loop
    vertex 3.89009 9.21234 10.6606
    vertex 0 10 8
    vertex 4.20357 9.07359 7.25991
  endloop
endfacet
facet normal -0.565382 -0.824622 -0.0184723
  outer loop
    vertex 7.07107 7.07107 8.88889
    vertex 3.89009 9.21234 10.6606
    vertex 4.20357 9.07359 7.25991
  endloop
endfacet
facet normal -0.195651 -0.980674 0
  outer loop
    vertex 0 10 12
    vertex 3.83739 9.23442 14.5463
    vertex 0 10 16
  endloop
endfacet
facet normal -0.197494 -0.9803 0.00289106
  outer loop
    vertex 0 10 12
    vertex 3.89009 9.21234 10.6606
    vertex 3.83739 9.23442 14.5463
  endloop
endfacet
facet normal -0.557092 -0.830446 -0.00283752
  outer loop
    vertex 3.89009 9.21234 10.6606
    vertex 7.07107 7.07107 12.8148
    vertex 3.83739 9.23442 14.5463
  endloop
endfacet
facet normal -0.195184 -0.980767 0
  outer loop
    vertex 0 10 16
    vertex 3.82859 9.23807 18.5249
    vertex 0 10 20
  endloop
endfacet
facet normal -0.19548 -0.980708 0.000467603
  outer loop
    vertex 0 10 16
    vertex 3.83739 9.23442 14.5463
    vertex 3.82859 9.23807 18.5249
  endloop
endfacet
facet normal -0.55582 -0.831302 -0.000466113
  outer loop
    vertex 3.83739 9.23442 14.5463
    vertex 7.07107 7.07107 16.8025
    vertex 3.82859 9.23807 18.5249
  endloop
endfacet
facet normal -0.195106 -0.980782 0
  outer loop
    vertex 0 10 20
    vertex 3.82713 9.23867 22.0764
    vertex 0 10 24
  endloop
endfacet
facet normal -0.195151 -0.980773 8.72065e-05
  outer loop
    vertex 0 10 20
    vertex 3.82859 9.23807 18.5249
    vertex 3.82713 9.23867 22.0764
  endloop
endfacet
facet normal -0.555607 -0.831445 -8.71559e-05
  outer loop
    vertex 3.82859 9.23807 18.5249
    vertex 7.07107 7.07107 20.8004
    vertex 3.82713 9.23867 22.0764
  endloop
endfacet
facet normal -0.195092 -0.980785 2.17567e-06
  outer loop
    vertex 0 10 28
    vertex 3.82688 9.23878 25.7609
    vertex 3.82684 9.23879 29.7143
  endloop
endfacet
facet normal -0.555572 -0.831469 -2.17563e-06
  outer loop
    vertex 3.82688 9.23878 25.7609
    vertex 7.07107 7.07107 27.3556
    vertex 3.82684 9.23879 29.7143
  endloop
endfacet
facet normal -0.555572 -0.831468 6.35821e-16
  outer loop
    vertex 3.82688 9.23878 25.7609
    vertex 7.07107 7.07107 24.1334
    vertex 7.07107 7.07107 27.3556
  endloop
endfacet
facet normal -0.169741 -0.98452 0.0436859
  outer loop
    vertex 0 10 32
    vertex 3.82684 9.23879 29.7143
    vertex 3.09017 9.51056 32.9768
  endloop
endfacet
facet normal -0.529063 -0.847173 -0.0488921
  outer loop
    vertex 3.82684 9.23879 29.7143
    vertex 7.07107 7.07107 32.1694
    vertex 3.09017 9.51056 32.9768
  endloop
endfacet
facet normal -0.555571 -0.831469 0
  outer loop
    vertex 3.82684 9.23879 29.7143
    vertex 7.07107 7.07107 27.3556
    vertex 7.07107 7.07107 32.1694
  endloop
endfacet
facet normal -0.200223 -0.97975 0
  outer loop
    vertex 0 10 36
    vertex 3.92337 9.19821 38.6409
    vertex 0 10 40
  endloop
endfacet
facet normal -0.221217 -0.974675 0.03273
  outer loop
    vertex 0 10 36
    vertex 4.39939 8.98028 35.3682
    vertex 3.92337 9.19821 38.6409
  endloop
endfacet
facet normal -0.571749 -0.819931 -0.0285602
  outer loop
    vertex 4.39939 8.98028 35.3682
    vertex 7.07107 7.07107 36.6949
    vertex 3.92337 9.19821 38.6409
  endloop
endfacet
facet normal -0.195946 -0.980615 0
  outer loop
    vertex 0 10 40
    vertex 3.84295 9.2321 42.5368
    vertex 0 10 44
  endloop
endfacet
facet normal -0.19875 -0.98004 0.00442211
  outer loop
    vertex 0 10 40
    vertex 3.92337 9.19821 38.6409
    vertex 3.84295 9.2321 42.5368
  endloop
endfacet
facet normal -0.557902 -0.829896 -0.00429756
  outer loop
    vertex 3.92337 9.19821 38.6409
    vertex 7.07107 7.07107 40.7825
    vertex 3.84295 9.2321 42.5368
  endloop
endfacet
facet normal -0.195233 -0.980757 0
  outer loop
    vertex 0 10 44
    vertex 3.82952 9.23768 46.4968
    vertex 0 10 48
  endloop
endfacet
facet normal -0.195683 -0.980667 0.000718022
  outer loop
    vertex 0 10 44
    vertex 3.84295 9.2321 42.5368
    vertex 3.82952 9.23768 46.4968
  endloop
endfacet
facet normal -0.55595 -0.831215 -0.00071451
  outer loop
    vertex 3.84295 9.2321 42.5368
    vertex 7.07107 7.07107 44.7971
    vertex 3.82952 9.23768 46.4968
  endloop
endfacet
facet normal -0.18631 -0.982491 0
  outer loop
    vertex 0 10 48
    vertex 3.66096 9.30577 51.1017
    vertex 0 10 52
  endloop
endfacet
facet normal -0.192407 -0.981287 0.00746661
  outer loop
    vertex 0 10 48
    vertex 3.82952 9.23768 46.4968
    vertex 3.66096 9.30577 51.1017
  endloop
endfacet
facet normal -0.551509 -0.834132 -0.00785438
  outer loop
    vertex 3.82952 9.23768 46.4968
    vertex 7.07107 7.07107 48.9792
    vertex 3.66096 9.30577 51.1017
  endloop
endfacet
facet normal -0.983369 -0.165087 0.0757104
  outer loop
    vertex 10 0 52
    vertex 9.76613 2.15003 53.6506
    vertex 9.3127 3.6433 51.0172
  endloop
endfacet
facet normal -0.828306 -0.559547 0.0285827
  outer loop
    vertex 7.07107 7.07107 53.1597
    vertex 9.3127 3.6433 51.0172
    vertex 9.09003 4.16791 54.8342
  endloop
endfacet
facet normal -0.950335 -0.310969 -0.0127008
  outer loop
    vertex 9.76613 2.15003 53.6506
    vertex 9.09003 4.16791 54.8342
    vertex 9.3127 3.6433 51.0172
  endloop
endfacet
facet normal -0.171994 -0.98333 0.0589881
  outer loop
    vertex 2.28829 9.73467 54.249
    vertex 0 10 52
    vertex 3.66096 9.30577 51.1017
  endloop
endfacet
facet normal -0.571156 -0.818842 0.0572544
  outer loop
    vertex 3.66096 9.30577 51.1017
    vertex 7.07107 7.07107 53.1597
    vertex 4.86789 8.73519 54.9815
  endloop
endfacet
facet normal -0.354422 -0.93469 -0.0272045
  outer loop
    vertex 4.86789 8.73519 54.9815
    vertex 2.28829 9.73467 54.249
    vertex 3.66096 9.30577 51.1017
  endloop
endfacet
facet normal -0.845008 -0.531123 0.0622061
  outer loop
    vertex 7.76688 6.29885 2.85868
    vertex 7.07107 7.07107 0
    vertex 9.2135 3.88734 1.91974
  endloop
endfacet
facet normal -0.854639 -0.518971 0.0161545
  outer loop
    vertex 9.08111 4.1873 4.55204
    vertex 7.76688 6.29885 2.85868
    vertex 9.2135 3.88734 1.91974
  endloop
endfacet
facet normal -0.83509 -0.549805 -0.0184217
  outer loop
    vertex 7.07107 7.07107 60
    vertex 7.31414 6.81934 56.4941
    vertex 9.21488 3.88406 57.9348
  endloop
endfacet
facet normal -0.835521 -0.549206 -0.0166316
  outer loop
    vertex 7.31414 6.81934 56.4941
    vertex 9.09003 4.16791 54.8342
    vertex 9.21488 3.88406 57.9348
  endloop
endfacet
facet normal -0.836925 -0.547318 1.52818e-13
  outer loop
    vertex 9.3127 3.6433 51.0172
    vertex 7.07107 7.07107 53.1597
    vertex 7.07107 7.07107 48.9792
  endloop
endfacet
facet normal -0.548111 -0.836406 -1.51243e-13
  outer loop
    vertex 7.07107 7.07107 53.1597
    vertex 3.66096 9.30577 51.1017
    vertex 7.07107 7.07107 48.9792
  endloop
endfacet
facet normal -0.553861 -0.828911 0.0783863
  outer loop
    vertex 5.51945 8.33881 2.44254
    vertex 3.82683 9.2388 0
    vertex 7.07107 7.07107 0
  endloop
endfacet
facet normal -0.412414 -0.909657 -0.0493846
  outer loop
    vertex 2.73524 9.61865 2.11907
    vertex 3.82683 9.2388 0
    vertex 5.51945 8.33881 2.44254
  endloop
endfacet
facet normal -0.5537 -0.828671 -0.081984
  outer loop
    vertex 3.82683 9.2388 60
    vertex 5.28998 8.48623 57.725
    vertex 7.07107 7.07107 60
  endloop
endfacet
facet normal -0.413605 -0.909785 0.034948
  outer loop
    vertex 3.82683 9.2388 60
    vertex 2.77861 9.60621 57.1592
    vertex 5.28998 8.48623 57.725
  endloop
endfacet
facet normal -0.532537 -0.843566 -0.0692829
  outer loop
    vertex 5.51945 8.33881 2.44254
    vertex 6.93671 7.20292 5.37905
    vertex 3.86637 9.22232 4.39141
  endloop
endfacet
facet normal -0.675719 -0.735994 0.0414321
  outer loop
    vertex 7.76688 6.29885 2.85868
    vertex 6.93671 7.20292 5.37905
    vertex 5.51945 8.33881 2.44254
  endloop
endfacet
facet normal -0.131447 -0.991088 -0.0215988
  outer loop
    vertex 2.28829 9.73467 54.249
    vertex 2.77861 9.60621 57.1592
    vertex 0 10 56
  endloop
endfacet
facet normal -0.366299 -0.930268 0.0206538
  outer loop
    vertex 4.86789 8.73519 54.9815
    vertex 2.77861 9.60621 57.1592
    vertex 2.28829 9.73467 54.249
  endloop
endfacet
facet normal 0.831452 -0.555558 -0.00655436
  outer loop
    vertex 9.2135 -3.88734 1.91974
    vertex 7.07107 -7.07107 0
    vertex 9.2388 -3.82683 0
  endloop
endfacet
facet normal 0.977137 -0.211123 0.0250878
  outer loop
    vertex 9.2135 -3.88734 1.91974
    vertex 10 0 4
    vertex 9.08111 -4.1873 4.55204
  endloop
endfacet
facet normal 0.189153 -0.978956 0.0765881
  outer loop
    vertex 0 -10 4
    vertex 2.73524 -9.61865 2.11907
    vertex 3.86637 -9.22232 4.39141
  endloop
endfacet
facet normal 0.831456 -0.555561 0.0057674
  outer loop
    vertex 7.07107 -7.07107 60
    vertex 9.21488 -3.88406 57.9348
    vertex 9.2388 -3.82683 60
  endloop
endfacet
facet normal 0.977955 -0.207822 -0.020356
  outer loop
    vertex 10 0 56
    vertex 9.21488 -3.88406 57.9348
    vertex 9.09003 -4.16791 54.8342
  endloop
endfacet
facet normal 0.814802 -0.579738 -0.00122039
  outer loop
    vertex 9.07359 -4.20357 7.25991
    vertex 6.93671 -7.20292 5.37905
    vertex 9.08111 -4.1873 4.55204
  endloop
endfacet
facet normal 0.81725 -0.576203 -0.00963875
  outer loop
    vertex 6.93671 -7.20292 5.37905
    vertex 9.07359 -4.20357 7.25991
    vertex 7.07107 -7.07107 8.88889
  endloop
endfacet
facet normal 0.554312 -0.832018 -0.0220208
  outer loop
    vertex 6.93671 -7.20292 5.37905
    vertex 4.20357 -9.07359 7.25991
    vertex 3.86637 -9.22232 4.39141
  endloop
endfacet
facet normal 0.569049 -0.822253 0.00910576
  outer loop
    vertex 4.20357 -9.07359 7.25991
    vertex 6.93671 -7.20292 5.37905
    vertex 7.07107 -7.07107 8.88889
  endloop
endfacet
facet normal 0.82956 -0.558418 -8.45902e-14
  outer loop
    vertex 7.07107 -7.07107 8.88889
    vertex 9.21234 -3.89009 10.6606
    vertex 7.07107 -7.07107 12.8148
  endloop
endfacet
facet normal 0.980785 -0.195093 0
  outer loop
    vertex 9.23878 -3.82688 25.7609
    vertex 10 0 24
    vertex 10 0 28
  endloop
endfacet
facet normal 0.980785 -0.195091 0
  outer loop
    vertex 9.23879 -3.82684 29.7143
    vertex 10 0 28
    vertex 10 0 32
  endloop
endfacet
facet normal 0.987688 -0.156435 0
  outer loop
    vertex 9.51056 -3.09017 32.9768
    vertex 10 0 32
    vertex 10 0 36
  endloop
endfacet
facet normal 0.967881 -0.236565 0.0851111
  outer loop
    vertex 10 0 36
    vertex 8.98028 -4.39939 35.3682
    vertex 9.51056 -3.09017 32.9768
  endloop
endfacet
facet normal 0.558418 -0.82956 8.46047e-14
  outer loop
    vertex 3.89009 -9.21234 10.6606
    vertex 7.07107 -7.07107 8.88889
    vertex 7.07107 -7.07107 12.8148
  endloop
endfacet
facet normal 0.195093 -0.980785 0
  outer loop
    vertex 0 -10 24
    vertex 3.82688 -9.23878 25.7609
    vertex 0 -10 28
  endloop
endfacet
facet normal 0.195091 -0.980785 0
  outer loop
    vertex 0 -10 28
    vertex 3.82684 -9.23879 29.7143
    vertex 0 -10 32
  endloop
endfacet
facet normal 0.156435 -0.987688 0
  outer loop
    vertex 0 -10 32
    vertex 3.09017 -9.51056 32.9768
    vertex 0 -10 36
  endloop
endfacet
facet normal 0.236565 -0.967881 0.0851111
  outer loop
    vertex 4.39939 -8.98028 35.3682
    vertex 0 -10 36
    vertex 3.09017 -9.51056 32.9768
  endloop
endfacet
facet normal 0.821768 -0.565783 0.0677292
  outer loop
    vertex 6.93671 -7.20292 5.37905
    vertex 7.76688 -6.29885 2.85868
    vertex 9.08111 -4.1873 4.55204
  endloop
endfacet
facet normal 0.610651 -0.791753 0.015258
  outer loop
    vertex 7.07107 -7.07107 53.1597
    vertex 7.31414 -6.81934 56.4941
    vertex 4.86789 -8.73519 54.9815
  endloop
endfacet
facet normal 0.825593 -0.563991 -0.0176058
  outer loop
    vertex 7.31414 -6.81934 56.4941
    vertex 7.07107 -7.07107 53.1597
    vertex 9.09003 -4.16791 54.8342
  endloop
endfacet
facet normal 0.993997 -0.109409 0
  outer loop
    vertex 10 0 8
    vertex 9.76059 -2.17504 5.85531
    vertex 10 0 4
  endloop
endfacet
facet normal 0.947303 -0.320337 0.000705844
  outer loop
    vertex 9.08111 -4.1873 4.55204
    vertex 9.76059 -2.17504 5.85531
    vertex 9.07359 -4.20357 7.25991
  endloop
endfacet
facet normal 0.962101 -0.230368 -0.145921
  outer loop
    vertex 9.76059 -2.17504 5.85531
    vertex 9.08111 -4.1873 4.55204
    vertex 10 0 4
  endloop
endfacet
facet normal 0.963025 -0.235331 0.131161
  outer loop
    vertex 9.76059 -2.17504 5.85531
    vertex 10 0 8
    vertex 9.07359 -4.20357 7.25991
  endloop
endfacet
facet normal 0.994136 -0.108136 0
  outer loop
    vertex 9.76613 -2.15003 53.6506
    vertex 10 0 52
    vertex 10 0 56
  endloop
endfacet
facet normal 0.960604 -0.245935 0.129442
  outer loop
    vertex 9.09003 -4.16791 54.8342
    vertex 9.76613 -2.15003 53.6506
    vertex 10 0 56
  endloop
endfacet
facet normal 0.109409 -0.993997 0
  outer loop
    vertex 2.17504 -9.76059 5.85531
    vertex 0 -10 8
    vertex 0 -10 4
  endloop
endfacet
facet normal 0.313009 -0.949669 0.0124454
  outer loop
    vertex 2.17504 -9.76059 5.85531
    vertex 3.86637 -9.22232 4.39141
    vertex 4.20357 -9.07359 7.25991
  endloop
endfacet
facet normal 0.207255 -0.971187 -0.117651
  outer loop
    vertex 3.86637 -9.22232 4.39141
    vertex 2.17504 -9.76059 5.85531
    vertex 0 -10 4
  endloop
endfacet
facet normal 0.235331 -0.963025 0.131161
  outer loop
    vertex 0 -10 8
    vertex 2.17504 -9.76059 5.85531
    vertex 4.20357 -9.07359 7.25991
  endloop
endfacet
facet normal 0.115181 -0.993345 0
  outer loop
    vertex 0 -10 52
    vertex 2.28829 -9.73467 54.249
    vertex 0 -10 56
  endloop
endfacet
facet normal 0.422101 -0.905041 -0.0522608
  outer loop
    vertex 5.51945 -8.33881 2.44254
    vertex 3.86637 -9.22232 4.39141
    vertex 2.73524 -9.61865 2.11907
  endloop
endfacet
facet normal 0.66771 -0.743435 0.0383008
  outer loop
    vertex 5.51945 -8.33881 2.44254
    vertex 7.07107 -7.07107 0
    vertex 7.76688 -6.29885 2.85868
  endloop
endfacet
facet normal 0.626156 -0.779277 -0.0256169
  outer loop
    vertex 5.28998 -8.48623 57.725
    vertex 4.86789 -8.73519 54.9815
    vertex 7.31414 -6.81934 56.4941
  endloop
endfacet
facet normal 0.403262 -0.914844 0.0209768
  outer loop
    vertex 4.86789 -8.73519 54.9815
    vertex 5.28998 -8.48623 57.725
    vertex 2.77861 -9.60621 57.1592
  endloop
endfacet
facet normal 0.631324 -0.775428 -0.0119063
  outer loop
    vertex 7.07107 -7.07107 60
    vertex 5.28998 -8.48623 57.725
    vertex 7.31414 -6.81934 56.4941
  endloop
endfacet
facet normal 0.980784 -0.195099 -1.40075e-05
  outer loop
    vertex 9.23867 -3.82713 22.0764
    vertex 10 0 24
    vertex 9.23878 -3.82688 25.7609
  endloop
endfacet
facet normal 0.831465 -0.555577 1.40061e-05
  outer loop
    vertex 7.07107 -7.07107 24.1334
    vertex 9.23867 -3.82713 22.0764
    vertex 9.23878 -3.82688 25.7609
  endloop
endfacet
facet normal 0.195099 -0.980784 -1.40075e-05
  outer loop
    vertex 0 -10 24
    vertex 3.82713 -9.23867 22.0764
    vertex 3.82688 -9.23878 25.7609
  endloop
endfacet
facet normal 0.555577 -0.831465 1.40061e-05
  outer loop
    vertex 3.82713 -9.23867 22.0764
    vertex 7.07107 -7.07107 24.1334
    vertex 3.82688 -9.23878 25.7609
  endloop
endfacet
facet normal 0.980763 -0.195086 0.00677407
  outer loop
    vertex 9.2135 -3.88734 1.91974
    vertex 9.2388 -3.82683 0
    vertex 10 0 0
  endloop
endfacet
facet normal 0.98014 -0.198305 0
  outer loop
    vertex 10 0 4
    vertex 9.2135 -3.88734 1.91974
    vertex 10 0 0
  endloop
endfacet
facet normal 0.194539 -0.978015 -0.0751024
  outer loop
    vertex 3.82683 -9.2388 0
    vertex 2.73524 -9.61865 2.11907
    vertex 0 -10 0
  endloop
endfacet
facet normal 0.138085 -0.99042 0
  outer loop
    vertex 2.73524 -9.61865 2.11907
    vertex 0 -10 4
    vertex 0 -10 0
  endloop
endfacet
facet normal 0.980768 -0.195087 -0.00595007
  outer loop
    vertex 9.2388 -3.82683 60
    vertex 9.21488 -3.88406 57.9348
    vertex 10 0 60
  endloop
endfacet
facet normal 0.980176 -0.198131 0
  outer loop
    vertex 9.21488 -3.88406 57.9348
    vertex 10 0 56
    vertex 10 0 60
  endloop
endfacet
facet normal 0.194797 -0.979312 0.0547827
  outer loop
    vertex 2.77861 -9.60621 57.1592
    vertex 3.82683 -9.2388 60
    vertex 0 -10 60
  endloop
endfacet
facet normal 0.140319 -0.990106 0
  outer loop
    vertex 0 -10 56
    vertex 2.77861 -9.60621 57.1592
    vertex 0 -10 60
  endloop
endfacet
facet normal 0.831152 -0.556045 -1.42171e-14
  outer loop
    vertex 7.07107 -7.07107 12.8148
    vertex 9.23442 -3.83739 14.5463
    vertex 7.07107 -7.07107 16.8025
  endloop
endfacet
facet normal 0.556045 -0.831152 1.38542e-14
  outer loop
    vertex 3.83739 -9.23442 14.5463
    vertex 7.07107 -7.07107 12.8148
    vertex 7.07107 -7.07107 16.8025
  endloop
endfacet
facet normal 0.831417 -0.555649 -2.51183e-15
  outer loop
    vertex 7.07107 -7.07107 16.8025
    vertex 9.23807 -3.82859 18.5249
    vertex 7.07107 -7.07107 20.8004
  endloop
endfacet
facet normal 0.555649 -0.831417 2.50645e-15
  outer loop
    vertex 3.82859 -9.23807 18.5249
    vertex 7.07107 -7.07107 16.8025
    vertex 7.07107 -7.07107 20.8004
  endloop
endfacet
facet normal 0.831461 -0.555583 -2.20548e-16
  outer loop
    vertex 7.07107 -7.07107 20.8004
    vertex 9.23867 -3.82713 22.0764
    vertex 7.07107 -7.07107 24.1334
  endloop
endfacet
facet normal 0.555583 -0.831461 2.04907e-16
  outer loop
    vertex 3.82713 -9.23867 22.0764
    vertex 7.07107 -7.07107 20.8004
    vertex 7.07107 -7.07107 24.1334
  endloop
endfacet
facet normal 0.813608 -0.581413 0
  outer loop
    vertex 7.07107 -7.07107 32.1694
    vertex 8.98028 -4.39939 35.3682
    vertex 7.07107 -7.07107 36.6949
  endloop
endfacet
facet normal 0.581413 -0.813608 0
  outer loop
    vertex 4.39939 -8.98028 35.3682
    vertex 7.07107 -7.07107 32.1694
    vertex 7.07107 -7.07107 36.6949
  endloop
endfacet
facet normal 0.85718 -0.507485 -0.0877522
  outer loop
    vertex 8.98028 -4.39939 35.3682
    vertex 7.07107 -7.07107 32.1694
    vertex 9.51056 -3.09017 32.9768
  endloop
endfacet
facet normal 0.507485 -0.85718 -0.0877522
  outer loop
    vertex 7.07107 -7.07107 32.1694
    vertex 4.39939 -8.98028 35.3682
    vertex 3.09017 -9.51056 32.9768
  endloop
endfacet
facet normal 0.828549 -0.559916 3.60066e-16
  outer loop
    vertex 7.07107 -7.07107 36.6949
    vertex 9.19821 -3.92337 38.6409
    vertex 7.07107 -7.07107 40.7825
  endloop
endfacet
facet normal 0.559916 -0.828549 2.28781e-16
  outer loop
    vertex 3.92337 -9.19821 38.6409
    vertex 7.07107 -7.07107 36.6949
    vertex 7.07107 -7.07107 40.7825
  endloop
endfacet
facet normal 0.830984 -0.556296 -3.6769e-16
  outer loop
    vertex 7.07107 -7.07107 40.7825
    vertex 9.2321 -3.84295 42.5368
    vertex 7.07107 -7.07107 44.7971
  endloop
endfacet
facet normal 0.556296 -0.830984 -2.27805e-16
  outer loop
    vertex 3.84295 -9.2321 42.5368
    vertex 7.07107 -7.07107 40.7825
    vertex 7.07107 -7.07107 44.7971
  endloop
endfacet
facet normal 0.831389 -0.555691 6.73936e-14
  outer loop
    vertex 7.07107 -7.07107 44.7971
    vertex 9.23768 -3.82952 46.4968
    vertex 7.07107 -7.07107 48.9792
  endloop
endfacet
facet normal 0.555691 -0.831389 -6.71069e-14
  outer loop
    vertex 3.82952 -9.23768 46.4968
    vertex 7.07107 -7.07107 44.7971
    vertex 7.07107 -7.07107 48.9792
  endloop
endfacet
facet normal 0.980111 -0.198452 0
  outer loop
    vertex 9.21234 -3.89009 10.6606
    vertex 10 0 8
    vertex 10 0 12
  endloop
endfacet
facet normal 0.97711 -0.21176 -0.0203468
  outer loop
    vertex 10 0 8
    vertex 9.21234 -3.89009 10.6606
    vertex 9.07359 -4.20357 7.25991
  endloop
endfacet
facet normal 0.824622 -0.565382 0.0184723
  outer loop
    vertex 9.21234 -3.89009 10.6606
    vertex 7.07107 -7.07107 8.88889
    vertex 9.07359 -4.20357 7.25991
  endloop
endfacet
facet normal 0.980674 -0.195651 0
  outer loop
    vertex 9.23442 -3.83739 14.5463
    vertex 10 0 12
    vertex 10 0 16
  endloop
endfacet
facet normal 0.9803 -0.197494 -0.00289106
  outer loop
    vertex 9.21234 -3.89009 10.6606
    vertex 10 0 12
    vertex 9.23442 -3.83739 14.5463
  endloop
endfacet
facet normal 0.830446 -0.557092 0.00283752
  outer loop
    vertex 7.07107 -7.07107 12.8148
    vertex 9.21234 -3.89009 10.6606
    vertex 9.23442 -3.83739 14.5463
  endloop
endfacet
facet normal 0.980767 -0.195184 0
  outer loop
    vertex 9.23807 -3.82859 18.5249
    vertex 10 0 16
    vertex 10 0 20
  endloop
endfacet
facet normal 0.980708 -0.19548 -0.000467603
  outer loop
    vertex 9.23442 -3.83739 14.5463
    vertex 10 0 16
    vertex 9.23807 -3.82859 18.5249
  endloop
endfacet
facet normal 0.831302 -0.55582 0.000466113
  outer loop
    vertex 7.07107 -7.07107 16.8025
    vertex 9.23442 -3.83739 14.5463
    vertex 9.23807 -3.82859 18.5249
  endloop
endfacet
facet normal 0.980782 -0.195106 0
  outer loop
    vertex 9.23867 -3.82713 22.0764
    vertex 10 0 20
    vertex 10 0 24
  endloop
endfacet
facet normal 0.980773 -0.195151 -8.72065e-05
  outer loop
    vertex 9.23807 -3.82859 18.5249
    vertex 10 0 20
    vertex 9.23867 -3.82713 22.0764
  endloop
endfacet
facet normal 0.831445 -0.555607 8.71559e-05
  outer loop
    vertex 7.07107 -7.07107 20.8004
    vertex 9.23807 -3.82859 18.5249
    vertex 9.23867 -3.82713 22.0764
  endloop
endfacet
facet normal 0.980785 -0.195092 -2.17567e-06
  outer loop
    vertex 9.23878 -3.82688 25.7609
    vertex 10 0 28
    vertex 9.23879 -3.82684 29.7143
  endloop
endfacet
facet normal 0.831469 -0.555572 2.17563e-06
  outer loop
    vertex 7.07107 -7.07107 27.3556
    vertex 9.23878 -3.82688 25.7609
    vertex 9.23879 -3.82684 29.7143
  endloop
endfacet
facet normal 0.831468 -0.555572 -1.52099e-16
  outer loop
    vertex 7.07107 -7.07107 24.1334
    vertex 9.23878 -3.82688 25.7609
    vertex 7.07107 -7.07107 27.3556
  endloop
endfacet
facet normal 0.98452 -0.169741 -0.0436859
  outer loop
    vertex 9.23879 -3.82684 29.7143
    vertex 10 0 32
    vertex 9.51056 -3.09017 32.9768
  endloop
endfacet
facet normal 0.847173 -0.529063 0.0488921
  outer loop
    vertex 7.07107 -7.07107 32.1694
    vertex 9.23879 -3.82684 29.7143
    vertex 9.51056 -3.09017 32.9768
  endloop
endfacet
facet normal 0.831469 -0.555571 0
  outer loop
    vertex 7.07107 -7.07107 27.3556
    vertex 9.23879 -3.82684 29.7143
    vertex 7.07107 -7.07107 32.1694
  endloop
endfacet
facet normal 0.97975 -0.200223 0
  outer loop
    vertex 9.19821 -3.92337 38.6409
    vertex 10 0 36
    vertex 10 0 40
  endloop
endfacet
facet normal 0.974675 -0.221217 -0.03273
  outer loop
    vertex 8.98028 -4.39939 35.3682
    vertex 10 0 36
    vertex 9.19821 -3.92337 38.6409
  endloop
endfacet
facet normal 0.819931 -0.571749 0.0285602
  outer loop
    vertex 7.07107 -7.07107 36.6949
    vertex 8.98028 -4.39939 35.3682
    vertex 9.19821 -3.92337 38.6409
  endloop
endfacet
facet normal 0.980615 -0.195946 0
  outer loop
    vertex 9.2321 -3.84295 42.5368
    vertex 10 0 40
    vertex 10 0 44
  endloop
endfacet
facet normal 0.98004 -0.19875 -0.00442211
  outer loop
    vertex 9.19821 -3.92337 38.6409
    vertex 10 0 40
    vertex 9.2321 -3.84295 42.5368
  endloop
endfacet
facet normal 0.829896 -0.557902 0.00429756
  outer loop
    vertex 7.07107 -7.07107 40.7825
    vertex 9.19821 -3.92337 38.6409
    vertex 9.2321 -3.84295 42.5368
  endloop
endfacet
facet normal 0.980757 -0.195233 0
  outer loop
    vertex 9.23768 -3.82952 46.4968
    vertex 10 0 44
    vertex 10 0 48
  endloop
endfacet
facet normal 0.980667 -0.195683 -0.000718022
  outer loop
    vertex 9.2321 -3.84295 42.5368
    vertex 10 0 44
    vertex 9.23768 -3.82952 46.4968
  endloop
endfacet
facet normal 0.831215 -0.55595 0.00071451
  outer loop
    vertex 7.07107 -7.07107 44.7971
    vertex 9.2321 -3.84295 42.5368
    vertex 9.23768 -3.82952 46.4968
  endloop
endfacet
facet normal 0.982667 -0.185378 0
  outer loop
    vertex 9.3127 -3.6433 51.0172
    vertex 10 0 48
    vertex 10 0 52
  endloop
endfacet
facet normal 0.981347 -0.192063 -0.00837343
  outer loop
    vertex 9.23768 -3.82952 46.4968
    vertex 10 0 48
    vertex 9.3127 -3.6433 51.0172
  endloop
endfacet
facet normal 0.834474 -0.550976 0.00884947
  outer loop
    vertex 7.07107 -7.07107 48.9792
    vertex 9.23768 -3.82952 46.4968
    vertex 9.3127 -3.6433 51.0172
  endloop
endfacet
facet normal 0.198452 -0.980111 0
  outer loop
    vertex 0 -10 8
    vertex 3.89009 -9.21234 10.6606
    vertex 0 -10 12
  endloop
endfacet
facet normal 0.21176 -0.97711 -0.0203468
  outer loop
    vertex 3.89009 -9.21234 10.6606
    vertex 0 -10 8
    vertex 4.20357 -9.07359 7.25991
  endloop
endfacet
facet normal 0.565382 -0.824622 0.0184723
  outer loop
    vertex 7.07107 -7.07107 8.88889
    vertex 3.89009 -9.21234 10.6606
    vertex 4.20357 -9.07359 7.25991
  endloop
endfacet
facet normal 0.195651 -0.980674 0
  outer loop
    vertex 0 -10 12
    vertex 3.83739 -9.23442 14.5463
    vertex 0 -10 16
  endloop
endfacet
facet normal 0.197494 -0.9803 -0.00289106
  outer loop
    vertex 0 -10 12
    vertex 3.89009 -9.21234 10.6606
    vertex 3.83739 -9.23442 14.5463
  endloop
endfacet
facet normal 0.557092 -0.830446 0.00283752
  outer loop
    vertex 3.89009 -9.21234 10.6606
    vertex 7.07107 -7.07107 12.8148
    vertex 3.83739 -9.23442 14.5463
  endloop
endfacet
facet normal 0.195184 -0.980767 0
  outer loop
    vertex 0 -10 16
    vertex 3.82859 -9.23807 18.5249
    vertex 0 -10 20
  endloop
endfacet
facet normal 0.19548 -0.980708 -0.000467603
  outer loop
    vertex 0 -10 16
    vertex 3.83739 -9.23442 14.5463
    vertex 3.82859 -9.23807 18.5249
  endloop
endfacet
facet normal 0.55582 -0.831302 0.000466113
  outer loop
    vertex 3.83739 -9.23442 14.5463
    vertex 7.07107 -7.07107 16.8025
    vertex 3.82859 -9.23807 18.5249
  endloop
endfacet
facet normal 0.195106 -0.980782 0
  outer loop
    vertex 0 -10 20
    vertex 3.82713 -9.23867 22.0764
    vertex 0 -10 24
  endloop
endfacet
facet normal 0.195151 -0.980773 -8.72065e-05
  outer loop
    vertex 0 -10 20
    vertex 3.82859 -9.23807 18.5249
    vertex 3.82713 -9.23867 22.0764
  endloop
endfacet
facet normal 0.555607 -0.831445 8.71559e-05
  outer loop
    vertex 3.82859 -9.23807 18.5249
    vertex 7.07107 -7.07107 20.8004
    vertex 3.82713 -9.23867 22.0764
  endloop
endfacet
facet normal 0.195092 -0.980785 -2.17567e-06
  outer loop
    vertex 0 -10 28
    vertex 3.82688 -9.23878 25.7609
    vertex 3.82684 -9.23879 29.7143
  endloop
endfacet
facet normal 0.555572 -0.831469 2.17563e-06
  outer loop
    vertex 3.82688 -9.23878 25.7609
    vertex 7.07107 -7.07107 27.3556
    vertex 3.82684 -9.23879 29.7143
  endloop
endfacet
facet normal 0.555572 -0.831468 2.1194e-16
  outer loop
    vertex 3.82688 -9.23878 25.7609
    vertex 7.07107 -7.07107 24.1334
    vertex 7.07107 -7.07107 27.3556
  endloop
endfacet
facet normal 0.169741 -0.98452 -0.0436859
  outer loop
    vertex 0 -10 32
    vertex 3.82684 -9.23879 29.7143
    vertex 3.09017 -9.51056 32.9768
  endloop
endfacet
facet normal 0.529063 -0.847173 0.0488921
  outer loop
    vertex 3.82684 -9.23879 29.7143
    vertex 7.07107 -7.07107 32.1694
    vertex 3.09017 -9.51056 32.9768
  endloop
endfacet
facet normal 0.555571 -0.831469 0
  outer loop
    vertex 3.82684 -9.23879 29.7143
    vertex 7.07107 -7.07107 27.3556
    vertex 7.07107 -7.07107 32.1694
  endloop
endfacet
facet normal 0.200223 -0.97975 0
  outer loop
    vertex 0 -10 36
    vertex 3.92337 -9.19821 38.6409
    vertex 0 -10 40
  endloop
endfacet
facet normal 0.221217 -0.974675 -0.03273
  outer loop
    vertex 0 -10 36
    vertex 4.39939 -8.98028 35.3682
    vertex 3.92337 -9.19821 38.6409
  endloop
endfacet
facet normal 0.571749 -0.819931 0.0285602
  outer loop
    vertex 4.39939 -8.98028 35.3682
    vertex 7.07107 -7.07107 36.6949
    vertex 3.92337 -9.19821 38.6409
  endloop
endfacet
facet normal 0.195946 -0.980615 0
  outer loop
    vertex 0 -10 40
    vertex 3.84295 -9.2321 42.5368
    vertex 0 -10 44
  endloop
endfacet
facet normal 0.19875 -0.98004 -0.00442211
  outer loop
    vertex 0 -10 40
    vertex 3.92337 -9.19821 38.6409
    vertex 3.84295 -9.2321 42.5368
  endloop
endfacet
facet normal 0.557902 -0.829896 0.00429756
  outer loop
    vertex 3.92337 -9.19821 38.6409
    vertex 7.07107 -7.07107 40.7825
    vertex 3.84295 -9.2321 42.5368
  endloop
endfacet
facet normal 0.195233 -0.980757 0
  outer loop
    vertex 0 -10 44
    vertex 3.82952 -9.23768 46.4968
    vertex 0 -10 48
  endloop
endfacet
facet normal 0.195683 -0.980667 -0.000718022
  outer loop
    vertex 0 -10 44
    vertex 3.84295 -9.2321 42.5368
    vertex 3.82952 -9.23768 46.4968
  endloop
endfacet
facet normal 0.55595 -0.831215 0.00071451
  outer loop
    vertex 3.84295 -9.2321 42.5368
    vertex 7.07107 -7.07107 44.7971
    vertex 3.82952 -9.23768 46.4968
  endloop
endfacet
facet normal 0.18631 -0.982491 0
  outer loop
    vertex 0 -10 48
    vertex 3.66096 -9.30577 51.1017
    vertex 0 -10 52
  endloop
endfacet
facet normal 0.192407 -0.981287 -0.00746661
  outer loop
    vertex 0 -10 48
    vertex 3.82952 -9.23768 46.4968
    vertex 3.66096 -9.30577 51.1017
  endloop
endfacet
facet normal 0.551509 -0.834132 0.00785438
  outer loop
    vertex 3.82952 -9.23768 46.4968
    vertex 7.07107 -7.07107 48.9792
    vertex 3.66096 -9.30577 51.1017
  endloop
endfacet
facet normal 0.983369 -0.165087 -0.0757104
  outer loop
    vertex 10 0 52
    vertex 9.76613 -2.15003 53.6506
    vertex 9.3127 -3.6433 51.0172
  endloop
endfacet
facet normal 0.828306 -0.559547 -0.0285827
  outer loop
    vertex 7.07107 -7.07107 53.1597
    vertex 9.3127 -3.6433 51.0172
    vertex 9.09003 -4.16791 54.8342
  endloop
endfacet
facet normal 0.950335 -0.310969 0.0127008
  outer loop
    vertex 9.76613 -2.15003 53.6506
    vertex 9.09003 -4.16791 54.8342
    vertex 9.3127 -3.6433 51.0172
  endloop
endfacet
facet normal 0.171994 -0.98333 -0.0589881
  outer loop
    vertex 2.28829 -9.73467 54.249
    vertex 0 -10 52
    vertex 3.66096 -9.30577 51.1017
  endloop
endfacet
facet normal 0.571156 -0.818842 -0.0572544
  outer loop
    vertex 3.66096 -9.30577 51.1017
    vertex 7.07107 -7.07107 53.1597
    vertex 4.86789 -8.73519 54.9815
  endloop
endfacet
facet normal 0.354422 -0.93469 0.0272045
  outer loop
    vertex 4.86789 -8.73519 54.9815
    vertex 2.28829 -9.73467 54.249
    vertex 3.66096 -9.30577 51.1017
  endloop
endfacet
facet normal 0.845008 -0.531123 -0.0622061
  outer loop
    vertex 7.76688 -6.29885 2.85868
    vertex 7.07107 -7.07107 0
    vertex 9.2135 -3.88734 1.91974
  endloop
endfacet
facet normal 0.854639 -0.518971 -0.0161545
  outer loop
    vertex 9.08111 -4.1873 4.55204
    vertex 7.76688 -6.29885 2.85868
    vertex 9.2135 -3.88734 1.91974
  endloop
endfacet
facet normal 0.83509 -0.549805 0.0184217
  outer loop
    vertex 7.07107 -7.07107 60
    vertex 7.31414 -6.81934 56.4941
    vertex 9.21488 -3.88406 57.9348
  endloop
endfacet
facet normal 0.835521 -0.549206 0.0166316
  outer loop
    vertex 7.31414 -6.81934 56.4941
    vertex 9.09003 -4.16791 54.8342
    vertex 9.21488 -3.88406 57.9348
  endloop
endfacet
facet normal 0.836925 -0.547318 1.52196e-13
  outer loop
    vertex 9.3127 -3.6433 51.0172
    vertex 7.07107 -7.07107 53.1597
    vertex 7.07107 -7.07107 48.9792
  endloop
endfacet
facet normal 0.548111 -0.836406 -1.5177e-13
  outer loop
    vertex 7.07107 -7.07107 53.1597
    vertex 3.66096 -9.30577 51.1017
    vertex 7.07107 -7.07107 48.9792
  endloop
endfacet
facet normal 0.553861 -0.828911 -0.0783863
  outer loop
    vertex 5.51945 -8.33881 2.44254
    vertex 3.82683 -9.2388 0
    vertex 7.07107 -7.07107 0
  endloop
endfacet
facet normal 0.412414 -0.909657 0.0493846
  outer loop
    vertex 2.73524 -9.61865 2.11907
    vertex 3.82683 -9.2388 0
    vertex 5.51945 -8.33881 2.44254
  endloop
endfacet
facet normal 0.5537 -0.828671 0.081984
  outer loop
    vertex 3.82683 -9.2388 60
    vertex 5.28998 -8.48623 57.725
    vertex 7.07107 -7.07107 60
  endloop
endfacet
facet normal 0.413605 -0.909785 -0.034948
  outer loop
    vertex 3.82683 -9.2388 60
    vertex 2.77861 -9.60621 57.1592
    vertex 5.28998 -8.48623 57.725
  endloop
endfacet
facet normal 0.532537 -0.843566 0.0692829
  outer loop
    vertex 5.51945 -8.33881 2.44254
    vertex 6.93671 -7.20292 5.37905
    vertex 3.86637 -9.22232 4.39141
  endloop
endfacet
facet normal 0.675719 -0.735994 -0.0414321
  outer loop
    vertex 7.76688 -6.29885 2.85868
    vertex 6.93671 -7.20292 5.37905
    vertex 5.51945 -8.33881 2.44254
  endloop
endfacet
facet normal 0.131447 -0.991088 0.0215988
  outer loop
    vertex 2.28829 -9.73467 54.249
    vertex 2.77861 -9.60621 57.1592
    vertex 0 -10 56
  endloop
endfacet
facet normal 0.366299 -0.930268 -0.0206538
  outer loop
    vertex 4.86789 -8.73519 54.9815
    vertex 2.77861 -9.60621 57.1592
    vertex 2.28829 -9.73467 54.249
  endloop
endfacet
facet normal -0.831452 -0.555558 -0.00655436
  outer loop
    vertex -7.07107 -7.07107 0
    vertex -9.2135 -3.88734 1.91974
    vertex -9.2388 -3.82683 0
  endloop
endfacet
facet normal -0.977137 -0.211123 0.0250878
  outer loop
    vertex -10 0 4
    vertex -9.2135 -3.88734 1.91974
    vertex -9.08111 -4.1873 4.55204
  endloop
endfacet
facet normal -0.189153 -0.978956 0.0765881
  outer loop
    vertex -2.73524 -9.61865 2.11907
    vertex 0 -10 4
    vertex -3.86637 -9.22232 4.39141
  endloop
endfacet
facet normal -0.831456 -0.555561 0.0057674
  outer loop
    vertex -9.21488 -3.88406 57.9348
    vertex -7.07107 -7.07107 60
    vertex -9.2388 -3.82683 60
  endloop
endfacet
facet normal -0.977955 -0.207822 -0.020356
  outer loop
    vertex -9.21488 -3.88406 57.9348
    vertex -10 0 56
    vertex -9.09003 -4.16791 54.8342
  endloop
endfacet
facet normal -0.814802 -0.579738 -0.00122039
  outer loop
    vertex -6.93671 -7.20292 5.37905
    vertex -9.07359 -4.20357 7.25991
    vertex -9.08111 -4.1873 4.55204
  endloop
endfacet
facet normal -0.81725 -0.576203 -0.00963875
  outer loop
    vertex -9.07359 -4.20357 7.25991
    vertex -6.93671 -7.20292 5.37905
    vertex -7.07107 -7.07107 8.88889
  endloop
endfacet
facet normal -0.554312 -0.832018 -0.0220208
  outer loop
    vertex -4.20357 -9.07359 7.25991
    vertex -6.93671 -7.20292 5.37905
    vertex -3.86637 -9.22232 4.39141
  endloop
endfacet
facet normal -0.569049 -0.822253 0.00910576
  outer loop
    vertex -6.93671 -7.20292 5.37905
    vertex -4.20357 -9.07359 7.25991
    vertex -7.07107 -7.07107 8.88889
  endloop
endfacet
facet normal -0.82956 -0.558418 8.46047e-14
  outer loop
    vertex -9.21234 -3.89009 10.6606
    vertex -7.07107 -7.07107 8.88889
    vertex -7.07107 -7.07107 12.8148
  endloop
endfacet
facet normal -0.980785 -0.195093 0
  outer loop
    vertex -10 0 24
    vertex -9.23878 -3.82688 25.7609
    vertex -10 0 28
  endloop
endfacet
facet normal -0.980785 -0.195091 0
  outer loop
    vertex -10 0 28
    vertex -9.23879 -3.82684 29.7143
    vertex -10 0 32
  endloop
endfacet
facet normal -0.987688 -0.156435 0
  outer loop
    vertex -10 0 32
    vertex -9.51056 -3.09017 32.9768
    vertex -10 0 36
  endloop
endfacet
facet normal -0.967881 -0.236565 0.0851111
  outer loop
    vertex -8.98028 -4.39939 35.3682
    vertex -10 0 36
    vertex -9.51056 -3.09017 32.9768
  endloop
endfacet
facet normal -0.558418 -0.82956 -8.45902e-14
  outer loop
    vertex -7.07107 -7.07107 8.88889
    vertex -3.89009 -9.21234 10.6606
    vertex -7.07107 -7.07107 12.8148
  endloop
endfacet
facet normal -0.195093 -0.980785 0
  outer loop
    vertex -3.82688 -9.23878 25.7609
    vertex 0 -10 24
    vertex 0 -10 28
  endloop
endfacet
facet normal -0.195091 -0.980785 0
  outer loop
    vertex -3.82684 -9.23879 29.7143
    vertex 0 -10 28
    vertex 0 -10 32
  endloop
endfacet
facet normal -0.156435 -0.987688 0
  outer loop
    vertex -3.09017 -9.51056 32.9768
    vertex 0 -10 32
    vertex 0 -10 36
  endloop
endfacet
facet normal -0.236565 -0.967881 0.0851111
  outer loop
    vertex 0 -10 36
    vertex -4.39939 -8.98028 35.3682
    vertex -3.09017 -9.51056 32.9768
  endloop
endfacet
facet normal -0.821768 -0.565783 0.0677292
  outer loop
    vertex -7.76688 -6.29885 2.85868
    vertex -6.93671 -7.20292 5.37905
    vertex -9.08111 -4.1873 4.55204
  endloop
endfacet
facet normal -0.610651 -0.791753 0.015258
  outer loop
    vertex -7.31414 -6.81934 56.4941
    vertex -7.07107 -7.07107 53.1597
    vertex -4.86789 -8.73519 54.9815
  endloop
endfacet
facet normal -0.825593 -0.563991 -0.0176058
  outer loop
    vertex -7.07107 -7.07107 53.1597
    vertex -7.31414 -6.81934 56.4941
    vertex -9.09003 -4.16791 54.8342
  endloop
endfacet
facet normal -0.993997 -0.109409 0
  outer loop
    vertex -9.76059 -2.17504 5.85531
    vertex -10 0 8
    vertex -10 0 4
  endloop
endfacet
facet normal -0.947303 -0.320337 0.000705844
  outer loop
    vertex -9.76059 -2.17504 5.85531
    vertex -9.08111 -4.1873 4.55204
    vertex -9.07359 -4.20357 7.25991
  endloop
endfacet
facet normal -0.962101 -0.230368 -0.145921
  outer loop
    vertex -9.08111 -4.1873 4.55204
    vertex -9.76059 -2.17504 5.85531
    vertex -10 0 4
  endloop
endfacet
facet normal -0.963025 -0.235331 0.131161
  outer loop
    vertex -10 0 8
    vertex -9.76059 -2.17504 5.85531
    vertex -9.07359 -4.20357 7.25991
  endloop
endfacet
facet normal -0.994136 -0.108136 0
  outer loop
    vertex -10 0 52
    vertex -9.76613 -2.15003 53.6506
    vertex -10 0 56
  endloop
endfacet
facet normal -0.960604 -0.245935 0.129442
  outer loop
    vertex -9.76613 -2.15003 53.6506
    vertex -9.09003 -4.16791 54.8342
    vertex -10 0 56
  endloop
endfacet
facet normal -0.109409 -0.993997 -0
  outer loop
    vertex 0 -10 8
    vertex -2.17504 -9.76059 5.85531
    vertex 0 -10 4
  endloop
endfacet
facet normal -0.313009 -0.949669 0.0124454
  outer loop
    vertex -3.86637 -9.22232 4.39141
    vertex -2.17504 -9.76059 5.85531
    vertex -4.20357 -9.07359 7.25991
  endloop
endfacet
facet normal -0.207255 -0.971187 -0.117651
  outer loop
    vertex -2.17504 -9.76059 5.85531
    vertex -3.86637 -9.22232 4.39141
    vertex 0 -10 4
  endloop
endfacet
facet normal -0.235331 -0.963025 0.131161
  outer loop
    vertex -2.17504 -9.76059 5.85531
    vertex 0 -10 8
    vertex -4.20357 -9.07359 7.25991
  endloop
endfacet
facet normal -0.115181 -0.993345 0
  outer loop
    vertex -2.28829 -9.73467 54.249
    vertex 0 -10 52
    vertex 0 -10 56
  endloop
endfacet
facet normal -0.422101 -0.905041 -0.0522608
  outer loop
    vertex -3.86637 -9.22232 4.39141
    vertex -5.51945 -8.33881 2.44254
    vertex -2.73524 -9.61865 2.11907
  endloop
endfacet
facet normal -0.66771 -0.743435 0.0383008
  outer loop
    vertex -7.07107 -7.07107 0
    vertex -5.51945 -8.33881 2.44254
    vertex -7.76688 -6.29885 2.85868
  endloop
endfacet
facet normal -0.626156 -0.779277 -0.0256169
  outer loop
    vertex -4.86789 -8.73519 54.9815
    vertex -5.28998 -8.48623 57.725
    vertex -7.31414 -6.81934 56.4941
  endloop
endfacet
facet normal -0.403262 -0.914844 0.0209768
  outer loop
    vertex -5.28998 -8.48623 57.725
    vertex -4.86789 -8.73519 54.9815
    vertex -2.77861 -9.60621 57.1592
  endloop
endfacet
facet normal -0.631324 -0.775428 -0.0119063
  outer loop
    vertex -5.28998 -8.48623 57.725
    vertex -7.07107 -7.07107 60
    vertex -7.31414 -6.81934 56.4941
  endloop
endfacet
facet normal -0.980784 -0.195099 -1.40075e-05
  outer loop
    vertex -10 0 24
    vertex -9.23867 -3.82713 22.0764
    vertex -9.23878 -3.82688 25.7609
  endloop
endfacet
facet normal -0.831465 -0.555577 1.40061e-05
  outer loop
    vertex -9.23867 -3.82713 22.0764
    vertex -7.07107 -7.07107 24.1334
    vertex -9.23878 -3.82688 25.7609
  endloop
endfacet
facet normal -0.195099 -0.980784 -1.40075e-05
  outer loop
    vertex -3.82713 -9.23867 22.0764
    vertex 0 -10 24
    vertex -3.82688 -9.23878 25.7609
  endloop
endfacet
facet normal -0.555577 -0.831465 1.40061e-05
  outer loop
    vertex -7.07107 -7.07107 24.1334
    vertex -3.82713 -9.23867 22.0764
    vertex -3.82688 -9.23878 25.7609
  endloop
endfacet
facet normal -0.980763 -0.195086 0.00677407
  outer loop
    vertex -9.2388 -3.82683 0
    vertex -9.2135 -3.88734 1.91974
    vertex -10 0 0
  endloop
endfacet
facet normal -0.98014 -0.198305 0
  outer loop
    vertex -9.2135 -3.88734 1.91974
    vertex -10 0 4
    vertex -10 0 0
  endloop
endfacet
facet normal -0.194539 -0.978015 -0.0751024
  outer loop
    vertex -2.73524 -9.61865 2.11907
    vertex -3.82683 -9.2388 0
    vertex 0 -10 0
  endloop
endfacet
facet normal -0.138085 -0.99042 -0
  outer loop
    vertex 0 -10 4
    vertex -2.73524 -9.61865 2.11907
    vertex 0 -10 0
  endloop
endfacet
facet normal -0.980768 -0.195087 -0.00595007
  outer loop
    vertex -9.21488 -3.88406 57.9348
    vertex -9.2388 -3.82683 60
    vertex -10 0 60
  endloop
endfacet
facet normal -0.980176 -0.198131 0
  outer loop
    vertex -10 0 56
    vertex -9.21488 -3.88406 57.9348
    vertex -10 0 60
  endloop
endfacet
facet normal -0.194797 -0.979312 0.0547827
  outer loop
    vertex -3.82683 -9.2388 60
    vertex -2.77861 -9.60621 57.1592
    vertex 0 -10 60
  endloop
endfacet
facet normal -0.140319 -0.990106 0
  outer loop
    vertex -2.77861 -9.60621 57.1592
    vertex 0 -10 56
    vertex 0 -10 60
  endloop
endfacet
facet normal -0.831152 -0.556045 1.38542e-14
  outer loop
    vertex -9.23442 -3.83739 14.5463
    vertex -7.07107 -7.07107 12.8148
    vertex -7.07107 -7.07107 16.8025
  endloop
endfacet
facet normal -0.556045 -0.831152 -1.42171e-14
  outer loop
    vertex -7.07107 -7.07107 12.8148
    vertex -3.83739 -9.23442 14.5463
    vertex -7.07107 -7.07107 16.8025
  endloop
endfacet
facet normal -0.831417 -0.555649 2.50645e-15
  outer loop
    vertex -9.23807 -3.82859 18.5249
    vertex -7.07107 -7.07107 16.8025
    vertex -7.07107 -7.07107 20.8004
  endloop
endfacet
facet normal -0.555649 -0.831417 -2.51183e-15
  outer loop
    vertex -7.07107 -7.07107 16.8025
    vertex -3.82859 -9.23807 18.5249
    vertex -7.07107 -7.07107 20.8004
  endloop
endfacet
facet normal -0.831461 -0.555583 2.04907e-16
  outer loop
    vertex -9.23867 -3.82713 22.0764
    vertex -7.07107 -7.07107 20.8004
    vertex -7.07107 -7.07107 24.1334
  endloop
endfacet
facet normal -0.555583 -0.831461 -2.20548e-16
  outer loop
    vertex -7.07107 -7.07107 20.8004
    vertex -3.82713 -9.23867 22.0764
    vertex -7.07107 -7.07107 24.1334
  endloop
endfacet
facet normal -0.813608 -0.581413 0
  outer loop
    vertex -8.98028 -4.39939 35.3682
    vertex -7.07107 -7.07107 32.1694
    vertex -7.07107 -7.07107 36.6949
  endloop
endfacet
facet normal -0.581413 -0.813608 0
  outer loop
    vertex -7.07107 -7.07107 32.1694
    vertex -4.39939 -8.98028 35.3682
    vertex -7.07107 -7.07107 36.6949
  endloop
endfacet
facet normal -0.85718 -0.507485 -0.0877522
  outer loop
    vertex -7.07107 -7.07107 32.1694
    vertex -8.98028 -4.39939 35.3682
    vertex -9.51056 -3.09017 32.9768
  endloop
endfacet
facet normal -0.507485 -0.85718 -0.0877522
  outer loop
    vertex -4.39939 -8.98028 35.3682
    vertex -7.07107 -7.07107 32.1694
    vertex -3.09017 -9.51056 32.9768
  endloop
endfacet
facet normal -0.828549 -0.559916 2.28781e-16
  outer loop
    vertex -9.19821 -3.92337 38.6409
    vertex -7.07107 -7.07107 36.6949
    vertex -7.07107 -7.07107 40.7825
  endloop
endfacet
facet normal -0.559916 -0.828549 3.60066e-16
  outer loop
    vertex -7.07107 -7.07107 36.6949
    vertex -3.92337 -9.19821 38.6409
    vertex -7.07107 -7.07107 40.7825
  endloop
endfacet
facet normal -0.830984 -0.556296 -2.27805e-16
  outer loop
    vertex -9.2321 -3.84295 42.5368
    vertex -7.07107 -7.07107 40.7825
    vertex -7.07107 -7.07107 44.7971
  endloop
endfacet
facet normal -0.556296 -0.830984 -3.6769e-16
  outer loop
    vertex -7.07107 -7.07107 40.7825
    vertex -3.84295 -9.2321 42.5368
    vertex -7.07107 -7.07107 44.7971
  endloop
endfacet
facet normal -0.831389 -0.555691 -6.71069e-14
  outer loop
    vertex -9.23768 -3.82952 46.4968
    vertex -7.07107 -7.07107 44.7971
    vertex -7.07107 -7.07107 48.9792
  endloop
endfacet
facet normal -0.555691 -0.831389 6.73936e-14
  outer loop
    vertex -7.07107 -7.07107 44.7971
    vertex -3.82952 -9.23768 46.4968
    vertex -7.07107 -7.07107 48.9792
  endloop
endfacet
facet normal -0.980111 -0.198452 0
  outer loop
    vertex -10 0 8
    vertex -9.21234 -3.89009 10.6606
    vertex -10 0 12
  endloop
endfacet
facet normal -0.97711 -0.21176 -0.0203468
  outer loop
    vertex -9.21234 -3.89009 10.6606
    vertex -10 0 8
    vertex -9.07359 -4.20357 7.25991
  endloop
endfacet
facet normal -0.824622 -0.565382 0.0184723
  outer loop
    vertex -7.07107 -7.07107 8.88889
    vertex -9.21234 -3.89009 10.6606
    vertex -9.07359 -4.20357 7.25991
  endloop
endfacet
facet normal -0.980674 -0.195651 0
  outer loop
    vertex -10 0 12
    vertex -9.23442 -3.83739 14.5463
    vertex -10 0 16
  endloop
endfacet
facet normal -0.9803 -0.197494 -0.00289106
  outer loop
    vertex -10 0 12
    vertex -9.21234 -3.89009 10.6606
    vertex -9.23442 -3.83739 14.5463
  endloop
endfacet
facet normal -0.830446 -0.557092 0.00283752
  outer loop
    vertex -9.21234 -3.89009 10.6606
    vertex -7.07107 -7.07107 12.8148
    vertex -9.23442 -3.83739 14.5463
  endloop
endfacet
facet normal -0.980767 -0.195184 0
  outer loop
    vertex -10 0 16
    vertex -9.23807 -3.82859 18.5249
    vertex -10 0 20
  endloop
endfacet
facet normal -0.980708 -0.19548 -0.000467603
  outer loop
    vertex -10 0 16
    vertex -9.23442 -3.83739 14.5463
    vertex -9.23807 -3.82859 18.5249
  endloop
endfacet
facet normal -0.831302 -0.55582 0.000466113
  outer loop
    vertex -9.23442 -3.83739 14.5463
    vertex -7.07107 -7.07107 16.8025
    vertex -9.23807 -3.82859 18.5249
  endloop
endfacet
facet normal -0.980782 -0.195106 0
  outer loop
    vertex -10 0 20
    vertex -9.23867 -3.82713 22.0764
    vertex -10 0 24
  endloop
endfacet
facet normal -0.980773 -0.195151 -8.72065e-05
  outer loop
    vertex -10 0 20
    vertex -9.23807 -3.82859 18.5249
    vertex -9.23867 -3.82713 22.0764
  endloop
endfacet
facet normal -0.831445 -0.555607 8.71559e-05
  outer loop
    vertex -9.23807 -3.82859 18.5249
    vertex -7.07107 -7.07107 20.8004
    vertex -9.23867 -3.82713 22.0764
  endloop
endfacet
facet normal -0.980785 -0.195092 -2.17567e-06
  outer loop
    vertex -10 0 28
    vertex -9.23878 -3.82688 25.7609
    vertex -9.23879 -3.82684 29.7143
  endloop
endfacet
facet normal -0.831469 -0.555572 2.17563e-06
  outer loop
    vertex -9.23878 -3.82688 25.7609
    vertex -7.07107 -7.07107 27.3556
    vertex -9.23879 -3.82684 29.7143
  endloop
endfacet
facet normal -0.831468 -0.555572 4.94528e-16
  outer loop
    vertex -9.23878 -3.82688 25.7609
    vertex -7.07107 -7.07107 24.1334
    vertex -7.07107 -7.07107 27.3556
  endloop
endfacet
facet normal -0.98452 -0.169741 -0.0436859
  outer loop
    vertex -10 0 32
    vertex -9.23879 -3.82684 29.7143
    vertex -9.51056 -3.09017 32.9768
  endloop
endfacet
facet normal -0.847173 -0.529063 0.0488921
  outer loop
    vertex -9.23879 -3.82684 29.7143
    vertex -7.07107 -7.07107 32.1694
    vertex -9.51056 -3.09017 32.9768
  endloop
endfacet
facet normal -0.831469 -0.555571 -1.89147e-16
  outer loop
    vertex -9.23879 -3.82684 29.7143
    vertex -7.07107 -7.07107 27.3556
    vertex -7.07107 -7.07107 32.1694
  endloop
endfacet
facet normal -0.97975 -0.200223 0
  outer loop
    vertex -10 0 36
    vertex -9.19821 -3.92337 38.6409
    vertex -10 0 40
  endloop
endfacet
facet normal -0.974675 -0.221217 -0.03273
  outer loop
    vertex -10 0 36
    vertex -8.98028 -4.39939 35.3682
    vertex -9.19821 -3.92337 38.6409
  endloop
endfacet
facet normal -0.819931 -0.571749 0.0285602
  outer loop
    vertex -8.98028 -4.39939 35.3682
    vertex -7.07107 -7.07107 36.6949
    vertex -9.19821 -3.92337 38.6409
  endloop
endfacet
facet normal -0.980615 -0.195946 0
  outer loop
    vertex -10 0 40
    vertex -9.2321 -3.84295 42.5368
    vertex -10 0 44
  endloop
endfacet
facet normal -0.98004 -0.19875 -0.00442211
  outer loop
    vertex -10 0 40
    vertex -9.19821 -3.92337 38.6409
    vertex -9.2321 -3.84295 42.5368
  endloop
endfacet
facet normal -0.829896 -0.557902 0.00429756
  outer loop
    vertex -9.19821 -3.92337 38.6409
    vertex -7.07107 -7.07107 40.7825
    vertex -9.2321 -3.84295 42.5368
  endloop
endfacet
facet normal -0.980757 -0.195233 0
  outer loop
    vertex -10 0 44
    vertex -9.23768 -3.82952 46.4968
    vertex -10 0 48
  endloop
endfacet
facet normal -0.980667 -0.195683 -0.000718022
  outer loop
    vertex -10 0 44
    vertex -9.2321 -3.84295 42.5368
    vertex -9.23768 -3.82952 46.4968
  endloop
endfacet
facet normal -0.831215 -0.55595 0.00071451
  outer loop
    vertex -9.2321 -3.84295 42.5368
    vertex -7.07107 -7.07107 44.7971
    vertex -9.23768 -3.82952 46.4968
  endloop
endfacet
facet normal -0.982667 -0.185378 0
  outer loop
    vertex -10 0 48
    vertex -9.3127 -3.6433 51.0172
    vertex -10 0 52
  endloop
endfacet
facet normal -0.981347 -0.192063 -0.00837343
  outer loop
    vertex -10 0 48
    vertex -9.23768 -3.82952 46.4968
    vertex -9.3127 -3.6433 51.0172
  endloop
endfacet
facet normal -0.834474 -0.550976 0.00884947
  outer loop
    vertex -9.23768 -3.82952 46.4968
    vertex -7.07107 -7.07107 48.9792
    vertex -9.3127 -3.6433 51.0172
  endloop
endfacet
facet normal -0.198452 -0.980111 0
  outer loop
    vertex -3.89009 -9.21234 10.6606
    vertex 0 -10 8
    vertex 0 -10 12
  endloop
endfacet
facet normal -0.21176 -0.97711 -0.0203468
  outer loop
    vertex 0 -10 8
    vertex -3.89009 -9.21234 10.6606
    vertex -4.20357 -9.07359 7.25991
  endloop
endfacet
facet normal -0.565382 -0.824622 0.0184723
  outer loop
    vertex -3.89009 -9.21234 10.6606
    vertex -7.07107 -7.07107 8.88889
    vertex -4.20357 -9.07359 7.25991
  endloop
endfacet
facet normal -0.195651 -0.980674 0
  outer loop
    vertex -3.83739 -9.23442 14.5463
    vertex 0 -10 12
    vertex 0 -10 16
  endloop
endfacet
facet normal -0.197494 -0.9803 -0.00289106
  outer loop
    vertex -3.89009 -9.21234 10.6606
    vertex 0 -10 12
    vertex -3.83739 -9.23442 14.5463
  endloop
endfacet
facet normal -0.557092 -0.830446 0.00283752
  outer loop
    vertex -7.07107 -7.07107 12.8148
    vertex -3.89009 -9.21234 10.6606
    vertex -3.83739 -9.23442 14.5463
  endloop
endfacet
facet normal -0.195184 -0.980767 0
  outer loop
    vertex -3.82859 -9.23807 18.5249
    vertex 0 -10 16
    vertex 0 -10 20
  endloop
endfacet
facet normal -0.19548 -0.980708 -0.000467603
  outer loop
    vertex -3.83739 -9.23442 14.5463
    vertex 0 -10 16
    vertex -3.82859 -9.23807 18.5249
  endloop
endfacet
facet normal -0.55582 -0.831302 0.000466113
  outer loop
    vertex -7.07107 -7.07107 16.8025
    vertex -3.83739 -9.23442 14.5463
    vertex -3.82859 -9.23807 18.5249
  endloop
endfacet
facet normal -0.195106 -0.980782 0
  outer loop
    vertex -3.82713 -9.23867 22.0764
    vertex 0 -10 20
    vertex 0 -10 24
  endloop
endfacet
facet normal -0.195151 -0.980773 -8.72065e-05
  outer loop
    vertex -3.82859 -9.23807 18.5249
    vertex 0 -10 20
    vertex -3.82713 -9.23867 22.0764
  endloop
endfacet
facet normal -0.555607 -0.831445 8.71559e-05
  outer loop
    vertex -7.07107 -7.07107 20.8004
    vertex -3.82859 -9.23807 18.5249
    vertex -3.82713 -9.23867 22.0764
  endloop
endfacet
facet normal -0.195092 -0.980785 -2.17567e-06
  outer loop
    vertex -3.82688 -9.23878 25.7609
    vertex 0 -10 28
    vertex -3.82684 -9.23879 29.7143
  endloop
endfacet
facet normal -0.555572 -0.831469 2.17563e-06
  outer loop
    vertex -7.07107 -7.07107 27.3556
    vertex -3.82688 -9.23878 25.7609
    vertex -3.82684 -9.23879 29.7143
  endloop
endfacet
facet normal -0.555572 -0.831468 3.06283e-16
  outer loop
    vertex -7.07107 -7.07107 24.1334
    vertex -3.82688 -9.23878 25.7609
    vertex -7.07107 -7.07107 27.3556
  endloop
endfacet
facet normal -0.169741 -0.98452 -0.0436859
  outer loop
    vertex -3.82684 -9.23879 29.7143
    vertex 0 -10 32
    vertex -3.09017 -9.51056 32.9768
  endloop
endfacet
facet normal -0.529063 -0.847173 0.0488921
  outer loop
    vertex -7.07107 -7.07107 32.1694
    vertex -3.82684 -9.23879 29.7143
    vertex -3.09017 -9.51056 32.9768
  endloop
endfacet
facet normal -0.555571 -0.831469 -3.06818e-16
  outer loop
    vertex -7.07107 -7.07107 27.3556
    vertex -3.82684 -9.23879 29.7143
    vertex -7.07107 -7.07107 32.1694
  endloop
endfacet
facet normal -0.200223 -0.97975 0
  outer loop
    vertex -3.92337 -9.19821 38.6409
    vertex 0 -10 36
    vertex 0 -10 40
  endloop
endfacet
facet normal -0.221217 -0.974675 -0.03273
  outer loop
    vertex -4.39939 -8.98028 35.3682
    vertex 0 -10 36
    vertex -3.92337 -9.19821 38.6409
  endloop
endfacet
facet normal -0.571749 -0.819931 0.0285602
  outer loop
    vertex -7.07107 -7.07107 36.6949
    vertex -4.39939 -8.98028 35.3682
    vertex -3.92337 -9.19821 38.6409
  endloop
endfacet
facet normal -0.195946 -0.980615 0
  outer loop
    vertex -3.84295 -9.2321 42.5368
    vertex 0 -10 40
    vertex 0 -10 44
  endloop
endfacet
facet normal -0.19875 -0.98004 -0.00442211
  outer loop
    vertex -3.92337 -9.19821 38.6409
    vertex 0 -10 40
    vertex -3.84295 -9.2321 42.5368
  endloop
endfacet
facet normal -0.557902 -0.829896 0.00429756
  outer loop
    vertex -7.07107 -7.07107 40.7825
    vertex -3.92337 -9.19821 38.6409
    vertex -3.84295 -9.2321 42.5368
  endloop
endfacet
facet normal -0.195233 -0.980757 0
  outer loop
    vertex -3.82952 -9.23768 46.4968
    vertex 0 -10 44
    vertex 0 -10 48
  endloop
endfacet
facet normal -0.195683 -0.980667 -0.000718022
  outer loop
    vertex -3.84295 -9.2321 42.5368
    vertex 0 -10 44
    vertex -3.82952 -9.23768 46.4968
  endloop
endfacet
facet normal -0.55595 -0.831215 0.00071451
  outer loop
    vertex -7.07107 -7.07107 44.7971
    vertex -3.84295 -9.2321 42.5368
    vertex -3.82952 -9.23768 46.4968
  endloop
endfacet
facet normal -0.18631 -0.982491 0
  outer loop
    vertex -3.66096 -9.30577 51.1017
    vertex 0 -10 48
    vertex 0 -10 52
  endloop
endfacet
facet normal -0.192407 -0.981287 -0.00746661
  outer loop
    vertex -3.82952 -9.23768 46.4968
    vertex 0 -10 48
    vertex -3.66096 -9.30577 51.1017
  endloop
endfacet
facet normal -0.551509 -0.834132 0.00785438
  outer loop
    vertex -7.07107 -7.07107 48.9792
    vertex -3.82952 -9.23768 46.4968
    vertex -3.66096 -9.30577 51.1017
  endloop
endfacet
facet normal -0.983369 -0.165087 -0.0757104
  outer loop
    vertex -9.76613 -2.15003 53.6506
    vertex -10 0 52
    vertex -9.3127 -3.6433 51.0172
  endloop
endfacet
facet normal -0.828306 -0.559547 -0.0285827
  outer loop
    vertex -9.3127 -3.6433 51.0172
    vertex -7.07107 -7.07107 53.1597
    vertex -9.09003 -4.16791 54.8342
  endloop
endfacet
facet normal -0.950335 -0.310969 0.0127008
  outer loop
    vertex -9.09003 -4.16791 54.8342
    vertex -9.76613 -2.15003 53.6506
    vertex -9.3127 -3.6433 51.0172
  endloop
endfacet
facet normal -0.171994 -0.98333 -0.0589881
  outer loop
    vertex 0 -10 52
    vertex -2.28829 -9.73467 54.249
    vertex -3.66096 -9.30577 51.1017
  endloop
endfacet
facet normal -0.571156 -0.818842 -0.0572544
  outer loop
    vertex -7.07107 -7.07107 53.1597
    vertex -3.66096 -9.30577 51.1017
    vertex -4.86789 -8.73519 54.9815
  endloop
endfacet
facet normal -0.354422 -0.93469 0.0272045
  outer loop
    vertex -2.28829 -9.73467 54.249
    vertex -4.86789 -8.73519 54.9815
    vertex -3.66096 -9.30577 51.1017
  endloop
endfacet
facet normal -0.845008 -0.531123 -0.0622061
  outer loop
    vertex -7.07107 -7.07107 0
    vertex -7.76688 -6.29885 2.85868
    vertex -9.2135 -3.88734 1.91974
  endloop
endfacet
facet normal -0.854639 -0.518971 -0.0161545
  outer loop
    vertex -7.76688 -6.29885 2.85868
    vertex -9.08111 -4.1873 4.55204
    vertex -9.2135 -3.88734 1.91974
  endloop
endfacet
facet normal -0.83509 -0.549805 0.0184217
  outer loop
    vertex -7.31414 -6.81934 56.4941
    vertex -7.07107 -7.07107 60
    vertex -9.21488 -3.88406 57.9348
  endloop
endfacet
facet normal -0.835521 -0.549206 0.0166316
  outer loop
    vertex -9.09003 -4.16791 54.8342
    vertex -7.31414 -6.81934 56.4941
    vertex -9.21488 -3.88406 57.9348
  endloop
endfacet
facet normal -0.836925 -0.547318 -1.52461e-13
  outer loop
    vertex -7.07107 -7.07107 53.1597
    vertex -9.3127 -3.6433 51.0172
    vertex -7.07107 -7.07107 48.9792
  endloop
endfacet
facet normal -0.548111 -0.836406 1.51482e-13
  outer loop
    vertex -3.66096 -9.30577 51.1017
    vertex -7.07107 -7.07107 53.1597
    vertex -7.07107 -7.07107 48.9792
  endloop
endfacet
facet normal -0.553861 -0.828911 -0.0783863
  outer loop
    vertex -3.82683 -9.2388 0
    vertex -5.51945 -8.33881 2.44254
    vertex -7.07107 -7.07107 0
  endloop
endfacet
facet normal -0.412414 -0.909657 0.0493846
  outer loop
    vertex -3.82683 -9.2388 0
    vertex -2.73524 -9.61865 2.11907
    vertex -5.51945 -8.33881 2.44254
  endloop
endfacet
facet normal -0.5537 -0.828671 0.081984
  outer loop
    vertex -5.28998 -8.48623 57.725
    vertex -3.82683 -9.2388 60
    vertex -7.07107 -7.07107 60
  endloop
endfacet
facet normal -0.413605 -0.909785 -0.034948
  outer loop
    vertex -2.77861 -9.60621 57.1592
    vertex -3.82683 -9.2388 60
    vertex -5.28998 -8.48623 57.725
  endloop
endfacet
facet normal -0.532537 -0.843566 0.0692829
  outer loop
    vertex -6.93671 -7.20292 5.37905
    vertex -5.51945 -8.33881 2.44254
    vertex -3.86637 -9.22232 4.39141
  endloop
endfacet
facet normal -0.675719 -0.735994 -0.0414321
  outer loop
    vertex -6.93671 -7.20292 5.37905
    vertex -7.76688 -6.29885 2.85868
    vertex -5.51945 -8.33881 2.44254
  endloop
endfacet
facet normal -0.131447 -0.991088 0.0215988
  outer loop
    vertex -2.77861 -9.60621 57.1592
    vertex -2.28829 -9.73467 54.249
    vertex 0 -10 56
  endloop
endfacet
facet normal -0.366299 -0.930268 -0.0206538
  outer loop
    vertex -2.77861 -9.60621 57.1592
    vertex -4.86789 -8.73519 54.9815
    vertex -2.28829 -9.73467 54.249
  endloop
endfacet
facet normal -0.555558 0.831452 -0.00655436
  outer loop
    vertex -7.07107 7.07107 0
    vertex -3.88734 9.2135 1.91974
    vertex -3.82683 9.2388 0
  endloop
endfacet
facet normal -0.211123 0.977137 0.0250878
  outer loop
    vertex 0 10 4
    vertex -3.88734 9.2135 1.91974
    vertex -4.1873 9.08111 4.55204
  endloop
endfacet
facet normal -0.978956 0.189153 0.0765881
  outer loop
    vertex -9.61865 2.73524 2.11907
    vertex -10 0 4
    vertex -9.22232 3.86637 4.39141
  endloop
endfacet
facet normal -0.555561 0.831456 0.0057674
  outer loop
    vertex -3.88406 9.21488 57.9348
    vertex -7.07107 7.07107 60
    vertex -3.82683 9.2388 60
  endloop
endfacet
facet normal -0.207822 0.977955 -0.020356
  outer loop
    vertex -3.88406 9.21488 57.9348
    vertex 0 10 56
    vertex -4.16791 9.09003 54.8342
  endloop
endfacet
facet normal -0.579738 0.814802 -0.00122039
  outer loop
    vertex -7.20292 6.93671 5.37905
    vertex -4.20357 9.07359 7.25991
    vertex -4.1873 9.08111 4.55204
  endloop
endfacet
facet normal -0.576203 0.81725 -0.00963875
  outer loop
    vertex -4.20357 9.07359 7.25991
    vertex -7.20292 6.93671 5.37905
    vertex -7.07107 7.07107 8.88889
  endloop
endfacet
facet normal -0.832018 0.554312 -0.0220208
  outer loop
    vertex -9.07359 4.20357 7.25991
    vertex -7.20292 6.93671 5.37905
    vertex -9.22232 3.86637 4.39141
  endloop
endfacet
facet normal -0.822253 0.569049 0.00910576
  outer loop
    vertex -7.20292 6.93671 5.37905
    vertex -9.07359 4.20357 7.25991
    vertex -7.07107 7.07107 8.88889
  endloop
endfacet
facet normal -0.558418 0.82956 8.46047e-14
  outer loop
    vertex -3.89009 9.21234 10.6606
    vertex -7.07107 7.07107 8.88889
    vertex -7.07107 7.07107 12.8148
  endloop
endfacet
facet normal -0.195093 0.980785 0
  outer loop
    vertex 0 10 24
    vertex -3.82688 9.23878 25.7609
    vertex 0 10 28
  endloop
endfacet
facet normal -0.195091 0.980785 0
  outer loop
    vertex 0 10 28
    vertex -3.82684 9.23879 29.7143
    vertex 0 10 32
  endloop
endfacet
facet normal -0.156435 0.987688 0
  outer loop
    vertex 0 10 32
    vertex -3.09017 9.51056 32.9768
    vertex 0 10 36
  endloop
endfacet
facet normal -0.236565 0.967881 0.0851111
  outer loop
    vertex -4.39939 8.98028 35.3682
    vertex 0 10 36
    vertex -3.09017 9.51056 32.9768
  endloop
endfacet
facet normal -0.82956 0.558418 -8.45902e-14
  outer loop
    vertex -7.07107 7.07107 8.88889
    vertex -9.21234 3.89009 10.6606
    vertex -7.07107 7.07107 12.8148
  endloop
endfacet
facet normal -0.980785 0.195093 0
  outer loop
    vertex -9.23878 3.82688 25.7609
    vertex -10 0 24
    vertex -10 0 28
  endloop
endfacet
facet normal -0.980785 0.195091 0
  outer loop
    vertex -9.23879 3.82684 29.7143
    vertex -10 0 28
    vertex -10 0 32
  endloop
endfacet
facet normal -0.987688 0.156435 0
  outer loop
    vertex -9.51056 3.09017 32.9768
    vertex -10 0 32
    vertex -10 0 36
  endloop
endfacet
facet normal -0.967881 0.236565 0.0851111
  outer loop
    vertex -10 0 36
    vertex -8.98028 4.39939 35.3682
    vertex -9.51056 3.09017 32.9768
  endloop
endfacet
facet normal -0.565783 0.821768 0.0677292
  outer loop
    vertex -6.29885 7.76688 2.85868
    vertex -7.20292 6.93671 5.37905
    vertex -4.1873 9.08111 4.55204
  endloop
endfacet
facet normal -0.791753 0.610651 0.015258
  outer loop
    vertex -6.81934 7.31414 56.4941
    vertex -7.07107 7.07107 53.1597
    vertex -8.73519 4.86789 54.9815
  endloop
endfacet
facet normal -0.563991 0.825593 -0.0176058
  outer loop
    vertex -7.07107 7.07107 53.1597
    vertex -6.81934 7.31414 56.4941
    vertex -4.16791 9.09003 54.8342
  endloop
endfacet
facet normal -0.109409 0.993997 0
  outer loop
    vertex -2.17504 9.76059 5.85531
    vertex 0 10 8
    vertex 0 10 4
  endloop
endfacet
facet normal -0.320337 0.947303 0.000705844
  outer loop
    vertex -2.17504 9.76059 5.85531
    vertex -4.1873 9.08111 4.55204
    vertex -4.20357 9.07359 7.25991
  endloop
endfacet
facet normal -0.230368 0.962101 -0.145921
  outer loop
    vertex -4.1873 9.08111 4.55204
    vertex -2.17504 9.76059 5.85531
    vertex 0 10 4
  endloop
endfacet
facet normal -0.235331 0.963025 0.131161
  outer loop
    vertex 0 10 8
    vertex -2.17504 9.76059 5.85531
    vertex -4.20357 9.07359 7.25991
  endloop
endfacet
facet normal -0.108136 0.994136 0
  outer loop
    vertex 0 10 52
    vertex -2.15003 9.76613 53.6506
    vertex 0 10 56
  endloop
endfacet
facet normal -0.245935 0.960604 0.129442
  outer loop
    vertex -2.15003 9.76613 53.6506
    vertex -4.16791 9.09003 54.8342
    vertex 0 10 56
  endloop
endfacet
facet normal -0.993997 0.109409 0
  outer loop
    vertex -10 0 8
    vertex -9.76059 2.17504 5.85531
    vertex -10 0 4
  endloop
endfacet
facet normal -0.949669 0.313009 0.0124454
  outer loop
    vertex -9.22232 3.86637 4.39141
    vertex -9.76059 2.17504 5.85531
    vertex -9.07359 4.20357 7.25991
  endloop
endfacet
facet normal -0.971187 0.207255 -0.117651
  outer loop
    vertex -9.76059 2.17504 5.85531
    vertex -9.22232 3.86637 4.39141
    vertex -10 0 4
  endloop
endfacet
facet normal -0.963025 0.235331 0.131161
  outer loop
    vertex -9.76059 2.17504 5.85531
    vertex -10 0 8
    vertex -9.07359 4.20357 7.25991
  endloop
endfacet
facet normal -0.993345 0.115181 0
  outer loop
    vertex -9.73467 2.28829 54.249
    vertex -10 0 52
    vertex -10 0 56
  endloop
endfacet
facet normal -0.905041 0.422101 -0.0522608
  outer loop
    vertex -9.22232 3.86637 4.39141
    vertex -8.33881 5.51945 2.44254
    vertex -9.61865 2.73524 2.11907
  endloop
endfacet
facet normal -0.743435 0.66771 0.0383008
  outer loop
    vertex -7.07107 7.07107 0
    vertex -8.33881 5.51945 2.44254
    vertex -6.29885 7.76688 2.85868
  endloop
endfacet
facet normal -0.779277 0.626156 -0.0256169
  outer loop
    vertex -8.73519 4.86789 54.9815
    vertex -8.48623 5.28998 57.725
    vertex -6.81934 7.31414 56.4941
  endloop
endfacet
facet normal -0.914844 0.403262 0.0209768
  outer loop
    vertex -8.48623 5.28998 57.725
    vertex -8.73519 4.86789 54.9815
    vertex -9.60621 2.77861 57.1592
  endloop
endfacet
facet normal -0.775428 0.631324 -0.0119063
  outer loop
    vertex -8.48623 5.28998 57.725
    vertex -7.07107 7.07107 60
    vertex -6.81934 7.31414 56.4941
  endloop
endfacet
facet normal -0.195099 0.980784 -1.40075e-05
  outer loop
    vertex 0 10 24
    vertex -3.82713 9.23867 22.0764
    vertex -3.82688 9.23878 25.7609
  endloop
endfacet
facet normal -0.555577 0.831465 1.40061e-05
  outer loop
    vertex -3.82713 9.23867 22.0764
    vertex -7.07107 7.07107 24.1334
    vertex -3.82688 9.23878 25.7609
  endloop
endfacet
facet normal -0.980784 0.195099 -1.40075e-05
  outer loop
    vertex -9.23867 3.82713 22.0764
    vertex -10 0 24
    vertex -9.23878 3.82688 25.7609
  endloop
endfacet
facet normal -0.831465 0.555577 1.40061e-05
  outer loop
    vertex -7.07107 7.07107 24.1334
    vertex -9.23867 3.82713 22.0764
    vertex -9.23878 3.82688 25.7609
  endloop
endfacet
facet normal -0.195086 0.980763 0.00677407
  outer loop
    vertex -3.82683 9.2388 0
    vertex -3.88734 9.2135 1.91974
    vertex 0 10 0
  endloop
endfacet
facet normal -0.198305 0.98014 0
  outer loop
    vertex -3.88734 9.2135 1.91974
    vertex 0 10 4
    vertex 0 10 0
  endloop
endfacet
facet normal -0.978015 0.194539 -0.0751024
  outer loop
    vertex -9.61865 2.73524 2.11907
    vertex -9.2388 3.82683 0
    vertex -10 0 0
  endloop
endfacet
facet normal -0.99042 0.138085 0
  outer loop
    vertex -10 0 4
    vertex -9.61865 2.73524 2.11907
    vertex -10 0 0
  endloop
endfacet
facet normal -0.195087 0.980768 -0.00595007
  outer loop
    vertex -3.88406 9.21488 57.9348
    vertex -3.82683 9.2388 60
    vertex 0 10 60
  endloop
endfacet
facet normal -0.198131 0.980176 0
  outer loop
    vertex 0 10 56
    vertex -3.88406 9.21488 57.9348
    vertex 0 10 60
  endloop
endfacet
facet normal -0.979312 0.194797 0.0547827
  outer loop
    vertex -9.2388 3.82683 60
    vertex -9.60621 2.77861 57.1592
    vertex -10 0 60
  endloop
endfacet
facet normal -0.990106 0.140319 0
  outer loop
    vertex -9.60621 2.77861 57.1592
    vertex -10 0 56
    vertex -10 0 60
  endloop
endfacet
facet normal -0.556045 0.831152 1.38542e-14
  outer loop
    vertex -3.83739 9.23442 14.5463
    vertex -7.07107 7.07107 12.8148
    vertex -7.07107 7.07107 16.8025
  endloop
endfacet
facet normal -0.831152 0.556045 -1.42171e-14
  outer loop
    vertex -7.07107 7.07107 12.8148
    vertex -9.23442 3.83739 14.5463
    vertex -7.07107 7.07107 16.8025
  endloop
endfacet
facet normal -0.555649 0.831417 2.50645e-15
  outer loop
    vertex -3.82859 9.23807 18.5249
    vertex -7.07107 7.07107 16.8025
    vertex -7.07107 7.07107 20.8004
  endloop
endfacet
facet normal -0.831417 0.555649 -2.51183e-15
  outer loop
    vertex -7.07107 7.07107 16.8025
    vertex -9.23807 3.82859 18.5249
    vertex -7.07107 7.07107 20.8004
  endloop
endfacet
facet normal -0.555583 0.831461 2.04907e-16
  outer loop
    vertex -3.82713 9.23867 22.0764
    vertex -7.07107 7.07107 20.8004
    vertex -7.07107 7.07107 24.1334
  endloop
endfacet
facet normal -0.831461 0.555583 -2.20548e-16
  outer loop
    vertex -7.07107 7.07107 20.8004
    vertex -9.23867 3.82713 22.0764
    vertex -7.07107 7.07107 24.1334
  endloop
endfacet
facet normal -0.581413 0.813608 0
  outer loop
    vertex -4.39939 8.98028 35.3682
    vertex -7.07107 7.07107 32.1694
    vertex -7.07107 7.07107 36.6949
  endloop
endfacet
facet normal -0.813608 0.581413 0
  outer loop
    vertex -7.07107 7.07107 32.1694
    vertex -8.98028 4.39939 35.3682
    vertex -7.07107 7.07107 36.6949
  endloop
endfacet
facet normal -0.507485 0.85718 -0.0877522
  outer loop
    vertex -7.07107 7.07107 32.1694
    vertex -4.39939 8.98028 35.3682
    vertex -3.09017 9.51056 32.9768
  endloop
endfacet
facet normal -0.85718 0.507485 -0.0877522
  outer loop
    vertex -8.98028 4.39939 35.3682
    vertex -7.07107 7.07107 32.1694
    vertex -9.51056 3.09017 32.9768
  endloop
endfacet
facet normal -0.559916 0.828549 2.28781e-16
  outer loop
    vertex -3.92337 9.19821 38.6409
    vertex -7.07107 7.07107 36.6949
    vertex -7.07107 7.07107 40.7825
  endloop
endfacet
facet normal -0.828549 0.559916 3.60066e-16
  outer loop
    vertex -7.07107 7.07107 36.6949
    vertex -9.19821 3.92337 38.6409
    vertex -7.07107 7.07107 40.7825
  endloop
endfacet
facet normal -0.556296 0.830984 -2.27805e-16
  outer loop
    vertex -3.84295 9.2321 42.5368
    vertex -7.07107 7.07107 40.7825
    vertex -7.07107 7.07107 44.7971
  endloop
endfacet
facet normal -0.830984 0.556296 -3.6769e-16
  outer loop
    vertex -7.07107 7.07107 40.7825
    vertex -9.2321 3.84295 42.5368
    vertex -7.07107 7.07107 44.7971
  endloop
endfacet
facet normal -0.555691 0.831389 -6.71069e-14
  outer loop
    vertex -3.82952 9.23768 46.4968
    vertex -7.07107 7.07107 44.7971
    vertex -7.07107 7.07107 48.9792
  endloop
endfacet
facet normal -0.831389 0.555691 6.73936e-14
  outer loop
    vertex -7.07107 7.07107 44.7971
    vertex -9.23768 3.82952 46.4968
    vertex -7.07107 7.07107 48.9792
  endloop
endfacet
facet normal -0.198452 0.980111 0
  outer loop
    vertex 0 10 8
    vertex -3.89009 9.21234 10.6606
    vertex 0 10 12
  endloop
endfacet
facet normal -0.21176 0.97711 -0.0203468
  outer loop
    vertex -3.89009 9.21234 10.6606
    vertex 0 10 8
    vertex -4.20357 9.07359 7.25991
  endloop
endfacet
facet normal -0.565382 0.824622 0.0184723
  outer loop
    vertex -7.07107 7.07107 8.88889
    vertex -3.89009 9.21234 10.6606
    vertex -4.20357 9.07359 7.25991
  endloop
endfacet
facet normal -0.195651 0.980674 0
  outer loop
    vertex 0 10 12
    vertex -3.83739 9.23442 14.5463
    vertex 0 10 16
  endloop
endfacet
facet normal -0.197494 0.9803 -0.00289106
  outer loop
    vertex 0 10 12
    vertex -3.89009 9.21234 10.6606
    vertex -3.83739 9.23442 14.5463
  endloop
endfacet
facet normal -0.557092 0.830446 0.00283752
  outer loop
    vertex -3.89009 9.21234 10.6606
    vertex -7.07107 7.07107 12.8148
    vertex -3.83739 9.23442 14.5463
  endloop
endfacet
facet normal -0.195184 0.980767 0
  outer loop
    vertex 0 10 16
    vertex -3.82859 9.23807 18.5249
    vertex 0 10 20
  endloop
endfacet
facet normal -0.19548 0.980708 -0.000467603
  outer loop
    vertex 0 10 16
    vertex -3.83739 9.23442 14.5463
    vertex -3.82859 9.23807 18.5249
  endloop
endfacet
facet normal -0.55582 0.831302 0.000466113
  outer loop
    vertex -3.83739 9.23442 14.5463
    vertex -7.07107 7.07107 16.8025
    vertex -3.82859 9.23807 18.5249
  endloop
endfacet
facet normal -0.195106 0.980782 0
  outer loop
    vertex 0 10 20
    vertex -3.82713 9.23867 22.0764
    vertex 0 10 24
  endloop
endfacet
facet normal -0.195151 0.980773 -8.72065e-05
  outer loop
    vertex 0 10 20
    vertex -3.82859 9.23807 18.5249
    vertex -3.82713 9.23867 22.0764
  endloop
endfacet
facet normal -0.555607 0.831445 8.71559e-05
  outer loop
    vertex -3.82859 9.23807 18.5249
    vertex -7.07107 7.07107 20.8004
    vertex -3.82713 9.23867 22.0764
  endloop
endfacet
facet normal -0.195092 0.980785 -2.17567e-06
  outer loop
    vertex 0 10 28
    vertex -3.82688 9.23878 25.7609
    vertex -3.82684 9.23879 29.7143
  endloop
endfacet
facet normal -0.555572 0.831469 2.17563e-06
  outer loop
    vertex -3.82688 9.23878 25.7609
    vertex -7.07107 7.07107 27.3556
    vertex -3.82684 9.23879 29.7143
  endloop
endfacet
facet normal -0.555572 0.831468 4.94528e-16
  outer loop
    vertex -3.82688 9.23878 25.7609
    vertex -7.07107 7.07107 24.1334
    vertex -7.07107 7.07107 27.3556
  endloop
endfacet
facet normal -0.169741 0.98452 -0.0436859
  outer loop
    vertex 0 10 32
    vertex -3.82684 9.23879 29.7143
    vertex -3.09017 9.51056 32.9768
  endloop
endfacet
facet normal -0.529063 0.847173 0.0488921
  outer loop
    vertex -3.82684 9.23879 29.7143
    vertex -7.07107 7.07107 32.1694
    vertex -3.09017 9.51056 32.9768
  endloop
endfacet
facet normal -0.555571 0.831469 -1.89147e-16
  outer loop
    vertex -3.82684 9.23879 29.7143
    vertex -7.07107 7.07107 27.3556
    vertex -7.07107 7.07107 32.1694
  endloop
endfacet
facet normal -0.200223 0.97975 0
  outer loop
    vertex 0 10 36
    vertex -3.92337 9.19821 38.6409
    vertex 0 10 40
  endloop
endfacet
facet normal -0.221217 0.974675 -0.03273
  outer loop
    vertex 0 10 36
    vertex -4.39939 8.98028 35.3682
    vertex -3.92337 9.19821 38.6409
  endloop
endfacet
facet normal -0.571749 0.819931 0.0285602
  outer loop
    vertex -4.39939 8.98028 35.3682
    vertex -7.07107 7.07107 36.6949
    vertex -3.92337 9.19821 38.6409
  endloop
endfacet
facet normal -0.195946 0.980615 0
  outer loop
    vertex 0 10 40
    vertex -3.84295 9.2321 42.5368
    vertex 0 10 44
  endloop
endfacet
facet normal -0.19875 0.98004 -0.00442211
  outer loop
    vertex 0 10 40
    vertex -3.92337 9.19821 38.6409
    vertex -3.84295 9.2321 42.5368
  endloop
endfacet
facet normal -0.557902 0.829896 0.00429756
  outer loop
    vertex -3.92337 9.19821 38.6409
    vertex -7.07107 7.07107 40.7825
    vertex -3.84295 9.2321 42.5368
  endloop
endfacet
facet normal -0.195233 0.980757 0
  outer loop
    vertex 0 10 44
    vertex -3.82952 9.23768 46.4968
    vertex 0 10 48
  endloop
endfacet
facet normal -0.195683 0.980667 -0.000718022
  outer loop
    vertex 0 10 44
    vertex -3.84295 9.2321 42.5368
    vertex -3.82952 9.23768 46.4968
  endloop
endfacet
facet normal -0.55595 0.831215 0.00071451
  outer loop
    vertex -3.84295 9.2321 42.5368
    vertex -7.07107 7.07107 44.7971
    vertex -3.82952 9.23768 46.4968
  endloop
endfacet
facet normal -0.185378 0.982667 0
  outer loop
    vertex 0 10 48
    vertex -3.6433 9.3127 51.0172
    vertex 0 10 52
  endloop
endfacet
facet normal -0.192063 0.981347 -0.00837343
  outer loop
    vertex 0 10 48
    vertex -3.82952 9.23768 46.4968
    vertex -3.6433 9.3127 51.0172
  endloop
endfacet
facet normal -0.550976 0.834474 0.00884947
  outer loop
    vertex -3.82952 9.23768 46.4968
    vertex -7.07107 7.07107 48.9792
    vertex -3.6433 9.3127 51.0172
  endloop
endfacet
facet normal -0.980111 0.198452 0
  outer loop
    vertex -9.21234 3.89009 10.6606
    vertex -10 0 8
    vertex -10 0 12
  endloop
endfacet
facet normal -0.97711 0.21176 -0.0203468
  outer loop
    vertex -10 0 8
    vertex -9.21234 3.89009 10.6606
    vertex -9.07359 4.20357 7.25991
  endloop
endfacet
facet normal -0.824622 0.565382 0.0184723
  outer loop
    vertex -9.21234 3.89009 10.6606
    vertex -7.07107 7.07107 8.88889
    vertex -9.07359 4.20357 7.25991
  endloop
endfacet
facet normal -0.980674 0.195651 0
  outer loop
    vertex -9.23442 3.83739 14.5463
    vertex -10 0 12
    vertex -10 0 16
  endloop
endfacet
facet normal -0.9803 0.197494 -0.00289106
  outer loop
    vertex -9.21234 3.89009 10.6606
    vertex -10 0 12
    vertex -9.23442 3.83739 14.5463
  endloop
endfacet
facet normal -0.830446 0.557092 0.00283752
  outer loop
    vertex -7.07107 7.07107 12.8148
    vertex -9.21234 3.89009 10.6606
    vertex -9.23442 3.83739 14.5463
  endloop
endfacet
facet normal -0.980767 0.195184 0
  outer loop
    vertex -9.23807 3.82859 18.5249
    vertex -10 0 16
    vertex -10 0 20
  endloop
endfacet
facet normal -0.980708 0.19548 -0.000467603
  outer loop
    vertex -9.23442 3.83739 14.5463
    vertex -10 0 16
    vertex -9.23807 3.82859 18.5249
  endloop
endfacet
facet normal -0.831302 0.55582 0.000466113
  outer loop
    vertex -7.07107 7.07107 16.8025
    vertex -9.23442 3.83739 14.5463
    vertex -9.23807 3.82859 18.5249
  endloop
endfacet
facet normal -0.980782 0.195106 0
  outer loop
    vertex -9.23867 3.82713 22.0764
    vertex -10 0 20
    vertex -10 0 24
  endloop
endfacet
facet normal -0.980773 0.195151 -8.72065e-05
  outer loop
    vertex -9.23807 3.82859 18.5249
    vertex -10 0 20
    vertex -9.23867 3.82713 22.0764
  endloop
endfacet
facet normal -0.831445 0.555607 8.71559e-05
  outer loop
    vertex -7.07107 7.07107 20.8004
    vertex -9.23807 3.82859 18.5249
    vertex -9.23867 3.82713 22.0764
  endloop
endfacet
facet normal -0.980785 0.195092 -2.17567e-06
  outer loop
    vertex -9.23878 3.82688 25.7609
    vertex -10 0 28
    vertex -9.23879 3.82684 29.7143
  endloop
endfacet
facet normal -0.831469 0.555572 2.17563e-06
  outer loop
    vertex -7.07107 7.07107 27.3556
    vertex -9.23878 3.82688 25.7609
    vertex -9.23879 3.82684 29.7143
  endloop
endfacet
facet normal -0.831468 0.555572 3.06283e-16
  outer loop
    vertex -7.07107 7.07107 24.1334
    vertex -9.23878 3.82688 25.7609
    vertex -7.07107 7.07107 27.3556
  endloop
endfacet
facet normal -0.98452 0.169741 -0.0436859
  outer loop
    vertex -9.23879 3.82684 29.7143
    vertex -10 0 32
    vertex -9.51056 3.09017 32.9768
  endloop
endfacet
facet normal -0.847173 0.529063 0.0488921
  outer loop
    vertex -7.07107 7.07107 32.1694
    vertex -9.23879 3.82684 29.7143
    vertex -9.51056 3.09017 32.9768
  endloop
endfacet
facet normal -0.831469 0.555571 -3.06818e-16
  outer loop
    vertex -7.07107 7.07107 27.3556
    vertex -9.23879 3.82684 29.7143
    vertex -7.07107 7.07107 32.1694
  endloop
endfacet
facet normal -0.97975 0.200223 0
  outer loop
    vertex -9.19821 3.92337 38.6409
    vertex -10 0 36
    vertex -10 0 40
  endloop
endfacet
facet normal -0.974675 0.221217 -0.03273
  outer loop
    vertex -8.98028 4.39939 35.3682
    vertex -10 0 36
    vertex -9.19821 3.92337 38.6409
  endloop
endfacet
facet normal -0.819931 0.571749 0.0285602
  outer loop
    vertex -7.07107 7.07107 36.6949
    vertex -8.98028 4.39939 35.3682
    vertex -9.19821 3.92337 38.6409
  endloop
endfacet
facet normal -0.980615 0.195946 0
  outer loop
    vertex -9.2321 3.84295 42.5368
    vertex -10 0 40
    vertex -10 0 44
  endloop
endfacet
facet normal -0.98004 0.19875 -0.00442211
  outer loop
    vertex -9.19821 3.92337 38.6409
    vertex -10 0 40
    vertex -9.2321 3.84295 42.5368
  endloop
endfacet
facet normal -0.829896 0.557902 0.00429756
  outer loop
    vertex -7.07107 7.07107 40.7825
    vertex -9.19821 3.92337 38.6409
    vertex -9.2321 3.84295 42.5368
  endloop
endfacet
facet normal -0.980757 0.195233 0
  outer loop
    vertex -9.23768 3.82952 46.4968
    vertex -10 0 44
    vertex -10 0 48
  endloop
endfacet
facet normal -0.980667 0.195683 -0.000718022
  outer loop
    vertex -9.2321 3.84295 42.5368
    vertex -10 0 44
    vertex -9.23768 3.82952 46.4968
  endloop
endfacet
facet normal -0.831215 0.55595 0.00071451
  outer loop
    vertex -7.07107 7.07107 44.7971
    vertex -9.2321 3.84295 42.5368
    vertex -9.23768 3.82952 46.4968
  endloop
endfacet
facet normal -0.982491 0.18631 0
  outer loop
    vertex -9.30577 3.66096 51.1017
    vertex -10 0 48
    vertex -10 0 52
  endloop
endfacet
facet normal -0.981287 0.192407 -0.00746661
  outer loop
    vertex -9.23768 3.82952 46.4968
    vertex -10 0 48
    vertex -9.30577 3.66096 51.1017
  endloop
endfacet
facet normal -0.834132 0.551509 0.00785438
  outer loop
    vertex -7.07107 7.07107 48.9792
    vertex -9.23768 3.82952 46.4968
    vertex -9.30577 3.66096 51.1017
  endloop
endfacet
facet normal -0.165087 0.983369 -0.0757104
  outer loop
    vertex -2.15003 9.76613 53.6506
    vertex 0 10 52
    vertex -3.6433 9.3127 51.0172
  endloop
endfacet
facet normal -0.559547 0.828306 -0.0285827
  outer loop
    vertex -3.6433 9.3127 51.0172
    vertex -7.07107 7.07107 53.1597
    vertex -4.16791 9.09003 54.8342
  endloop
endfacet
facet normal -0.310969 0.950335 0.0127008
  outer loop
    vertex -4.16791 9.09003 54.8342
    vertex -2.15003 9.76613 53.6506
    vertex -3.6433 9.3127 51.0172
  endloop
endfacet
facet normal -0.98333 0.171994 -0.0589881
  outer loop
    vertex -10 0 52
    vertex -9.73467 2.28829 54.249
    vertex -9.30577 3.66096 51.1017
  endloop
endfacet
facet normal -0.818842 0.571156 -0.0572544
  outer loop
    vertex -7.07107 7.07107 53.1597
    vertex -9.30577 3.66096 51.1017
    vertex -8.73519 4.86789 54.9815
  endloop
endfacet
facet normal -0.93469 0.354422 0.0272045
  outer loop
    vertex -9.73467 2.28829 54.249
    vertex -8.73519 4.86789 54.9815
    vertex -9.30577 3.66096 51.1017
  endloop
endfacet
facet normal -0.531123 0.845008 -0.0622061
  outer loop
    vertex -7.07107 7.07107 0
    vertex -6.29885 7.76688 2.85868
    vertex -3.88734 9.2135 1.91974
  endloop
endfacet
facet normal -0.518971 0.854639 -0.0161545
  outer loop
    vertex -6.29885 7.76688 2.85868
    vertex -4.1873 9.08111 4.55204
    vertex -3.88734 9.2135 1.91974
  endloop
endfacet
facet normal -0.549805 0.83509 0.0184217
  outer loop
    vertex -6.81934 7.31414 56.4941
    vertex -7.07107 7.07107 60
    vertex -3.88406 9.21488 57.9348
  endloop
endfacet
facet normal -0.549206 0.835521 0.0166316
  outer loop
    vertex -4.16791 9.09003 54.8342
    vertex -6.81934 7.31414 56.4941
    vertex -3.88406 9.21488 57.9348
  endloop
endfacet
facet normal -0.547318 0.836925 -1.52461e-13
  outer loop
    vertex -7.07107 7.07107 53.1597
    vertex -3.6433 9.3127 51.0172
    vertex -7.07107 7.07107 48.9792
  endloop
endfacet
facet normal -0.836406 0.548111 1.51482e-13
  outer loop
    vertex -9.30577 3.66096 51.1017
    vertex -7.07107 7.07107 53.1597
    vertex -7.07107 7.07107 48.9792
  endloop
endfacet
facet normal -0.828911 0.553861 -0.0783863
  outer loop
    vertex -9.2388 3.82683 0
    vertex -8.33881 5.51945 2.44254
    vertex -7.07107 7.07107 0
  endloop
endfacet
facet normal -0.909657 0.412414 0.0493846
  outer loop
    vertex -9.2388 3.82683 0
    vertex -9.61865 2.73524 2.11907
    vertex -8.33881 5.51945 2.44254
  endloop
endfacet
facet normal -0.828671 0.5537 0.081984
  outer loop
    vertex -8.48623 5.28998 57.725
    vertex -9.2388 3.82683 60
    vertex -7.07107 7.07107 60
  endloop
endfacet
facet normal -0.909785 0.413605 -0.034948
  outer loop
    vertex -9.60621 2.77861 57.1592
    vertex -9.2388 3.82683 60
    vertex -8.48623 5.28998 57.725
  endloop
endfacet
facet normal -0.843566 0.532537 0.0692829
  outer loop
    vertex -7.20292 6.93671 5.37905
    vertex -8.33881 5.51945 2.44254
    vertex -9.22232 3.86637 4.39141
  endloop
endfacet
facet normal -0.735994 0.675719 -0.0414321
  outer loop
    vertex -7.20292 6.93671 5.37905
    vertex -6.29885 7.76688 2.85868
    vertex -8.33881 5.51945 2.44254
  endloop
endfacet
facet normal -0.991088 0.131447 0.0215988
  outer loop
    vertex -9.60621 2.77861 57.1592
    vertex -9.73467 2.28829 54.249
    vertex -10 0 56
  endloop
endfacet
facet normal -0.930268 0.366299 -0.0206538
  outer loop
    vertex -9.60621 2.77861 57.1592
    vertex -8.73519 4.86789 54.9815
    vertex -9.73467 2.28829 54.249
  endloop
endfacet
endsolid Created by Gmsh
